<svg width="357" height="519" viewBox="0 0 357 519" fill="none" xmlns="http://www.w3.org/2000/svg">
<g clip-path="url(#clip0_101_5)">
<path d="M228.32 517.45C220.302 517.245 212.645 514.074 206.83 508.55L183.83 485.55H183.69H22.89C17.076 485.534 11.5047 483.218 7.39355 479.106C3.28243 474.995 0.965786 469.424 0.949951 463.61V22.94C0.965786 17.126 3.28243 11.5547 7.39355 7.44357C11.5047 3.33245 17.076 1.01583 22.89 1H128.57C136.59 1.20245 144.249 4.37796 150.06 9.91L173 32.85L173.14 32.91H333.95C339.76 32.9285 345.328 35.2449 349.437 39.3535C353.545 43.4622 355.862 49.0295 355.88 54.84V495.52C355.862 501.322 353.552 506.882 349.454 510.989C345.356 515.096 339.802 517.418 334 517.45H228.32Z" stroke="#CF9F1F" stroke-width="2" stroke-miterlimit="10"/>
</g>
<defs>
<clipPath id="clip0_101_5">
<rect width="356.93" height="518.45" fill="white"/>
</clipPath>
</defs>
</svg>
