<svg width="104" height="150" viewBox="0 0 104 150" fill="none" xmlns="http://www.w3.org/2000/svg">
<g clip-path="url(#clip0_101_13)">
<path d="M65.7201 148.05C63.4358 147.991 61.2547 147.086 59.5999 145.51L53.07 138.98H7.28C5.62586 138.977 4.04023 138.319 2.87057 137.149C1.70092 135.98 1.04265 134.394 1.04001 132.74V7.25002C1.04264 5.59496 1.70059 4.0083 2.86996 2.83706C4.03933 1.66581 5.62494 1.00531 7.28 1.00002H37.37C39.655 1.05525 41.8373 1.96101 43.49 3.54006L50.03 10.07H95.81C97.4659 10.07 99.0541 10.7271 100.226 11.897C101.398 13.0669 102.057 14.6541 102.06 16.31V141.78C102.06 143.438 101.402 145.027 100.229 146.199C99.0574 147.371 97.4676 148.03 95.81 148.03L65.7201 148.05Z" stroke="#CF9F1F" stroke-width="2" stroke-miterlimit="10"/>
</g>
<defs>
<clipPath id="clip0_101_13">
<rect width="103.06" height="149.04" fill="white"/>
</clipPath>
</defs>
</svg>
