<svg width="324" height="485" viewBox="0 0 324 485" fill="none" xmlns="http://www.w3.org/2000/svg">
<g clip-path="url(#clip0_125_4)">
<path d="M121.88 4.23001C119.058 1.69732 115.456 0.204853 111.67 0H5.98999C4.39869 0 2.87253 0.632152 1.74731 1.75737C0.622096 2.88259 -0.0100098 4.4087 -0.0100098 6V446.65C-0.0100098 448.241 0.622096 449.767 1.74731 450.893C2.87253 452.018 4.39869 452.65 5.98999 452.65H167.49C171.277 452.852 174.88 454.345 177.7 456.88L201.15 480.32C203.97 482.855 207.574 484.348 211.36 484.55H317.04C318.631 484.55 320.158 483.918 321.283 482.793C322.408 481.667 323.04 480.141 323.04 478.55V37.88C323.04 36.2887 322.408 34.7626 321.283 33.6374C320.158 32.5121 318.631 31.88 317.04 31.88H155.54C151.751 31.675 148.145 30.1827 145.32 27.65L121.88 4.23001Z" fill="black"/>
</g>
<defs>
<clipPath id="clip0_125_4">
<rect width="323.03" height="484.54" fill="white"/>
</clipPath>
</defs>
</svg>
