<svg width="1824" height="1222" viewBox="0 0 1824 1222" fill="none" xmlns="http://www.w3.org/2000/svg">
<g clip-path="url(#clip0_101_15)">
<g style="mix-blend-mode:overlay">
<g style="mix-blend-mode:overlay">
<g style="mix-blend-mode:overlay">
<path d="M84.73 259.2H75.61V268.29H84.73V259.2Z" fill="white"/>
</g>
<g style="mix-blend-mode:overlay">
<path d="M317.54 434.89H314.03V438.39H317.54V434.89Z" fill="white"/>
</g>
<g style="mix-blend-mode:overlay">
<path d="M199.73 369.1H196.22V372.6H199.73V369.1Z" fill="white"/>
</g>
<g style="mix-blend-mode:overlay">
<path d="M175.25 237.52H171.74V241.02H175.25V237.52Z" fill="white"/>
</g>
<g style="mix-blend-mode:overlay">
<path d="M10.01 511.39H6.5V514.89H10.01V511.39Z" fill="white"/>
</g>
<g style="mix-blend-mode:overlay">
<path d="M332.84 272.71H326.27V279.26H332.84V272.71Z" fill="white"/>
</g>
<g style="mix-blend-mode:overlay">
<path d="M156.89 462.43H150.32V468.98H156.89V462.43Z" fill="white"/>
</g>
<g style="mix-blend-mode:overlay">
<path d="M42.14 333.91H35.57V340.46H42.14V333.91Z" fill="white"/>
</g>
<g style="mix-blend-mode:overlay">
<path d="M92.63 425.71H86.06V432.26H92.63V425.71Z" fill="white"/>
</g>
<g style="mix-blend-mode:overlay">
<path d="M529.2 256.91H520.08V266H529.2V256.91Z" fill="white"/>
</g>
<g style="mix-blend-mode:overlay">
<path d="M777.31 492.26H773.8V495.76H777.31V492.26Z" fill="white"/>
</g>
<g style="mix-blend-mode:overlay">
<path d="M659.5 426.47H655.99V429.97H659.5V426.47Z" fill="white"/>
</g>
<g style="mix-blend-mode:overlay">
<path d="M679.39 255.11H675.88V258.61H679.39V255.11Z" fill="white"/>
</g>
<g style="mix-blend-mode:overlay">
<path d="M469.78 568.76H466.27V572.26H469.78V568.76Z" fill="white"/>
</g>
<g style="mix-blend-mode:overlay">
<path d="M387.16 411.17H383.65V414.67H387.16V411.17Z" fill="white"/>
</g>
<g style="mix-blend-mode:overlay">
<path d="M801.79 294.9H795.22V301.45H801.79V294.9Z" fill="white"/>
</g>
<g style="mix-blend-mode:overlay">
<path d="M650.32 548.88H643.75V555.43H650.32V548.88Z" fill="white"/>
</g>
<g style="mix-blend-mode:overlay">
<path d="M350.44 527.46H343.87V534.01H350.44V527.46Z" fill="white"/>
</g>
<g style="mix-blend-mode:overlay">
<path d="M376.45 224.52H369.88V231.07H376.45V224.52Z" fill="white"/>
</g>
<g style="mix-blend-mode:overlay">
<path d="M557.19 150.58H554.73V153.03H557.19V150.58Z" fill="white"/>
</g>
<g style="mix-blend-mode:overlay">
<path d="M749.88 112.32H745.28V116.91H749.88V112.32Z" fill="white"/>
</g>
<g style="mix-blend-mode:overlay">
<path d="M794.89 138.04H790.29V142.63H794.89V138.04Z" fill="white"/>
</g>
<g style="mix-blend-mode:overlay">
<path d="M12.5101 144.46H10.05V146.91H12.5101V144.46Z" fill="white"/>
</g>
<g style="mix-blend-mode:overlay">
<path d="M261.13 149.83H256.53V154.42H261.13V149.83Z" fill="white"/>
</g>
<g style="mix-blend-mode:overlay">
<path d="M227.91 90.88H225.45V93.33H227.91V90.88Z" fill="white"/>
</g>
<g style="mix-blend-mode:overlay">
<path d="M141.83 151.43H139.84V153.41H141.83V151.43Z" fill="white"/>
</g>
<g style="mix-blend-mode:overlay">
<path d="M16.05 120.2H14.0601V122.18H16.05V120.2Z" fill="white"/>
</g>
<g style="mix-blend-mode:overlay">
<path d="M127.17 123.03H122.57V127.62H127.17V123.03Z" fill="white"/>
</g>
<g style="mix-blend-mode:overlay">
<path d="M27.33 95.04H23.6V98.75H27.33V95.04Z" fill="white"/>
</g>
<g style="mix-blend-mode:overlay">
<path d="M52.49 131.48H48.76V135.19H52.49V131.48Z" fill="white"/>
</g>
<g style="mix-blend-mode:overlay">
<path d="M709.59 93.5H704.42V98.65H709.59V93.5Z" fill="white"/>
</g>
<g style="mix-blend-mode:overlay">
<path d="M772.19 157.55H770.2V159.53H772.19V157.55Z" fill="white"/>
</g>
<g style="mix-blend-mode:overlay">
<path d="M172.18 148.75H167.58V153.34H172.18V148.75Z" fill="white"/>
</g>
<g style="mix-blend-mode:overlay">
<path d="M646.41 126.32H644.42V128.3H646.41V126.32Z" fill="white"/>
</g>
<g style="mix-blend-mode:overlay">
<path d="M79.23 87.38H74.06V92.53H79.23V87.38Z" fill="white"/>
</g>
<g style="mix-blend-mode:overlay">
<path d="M657.69 101.16H653.96V104.87H657.69V101.16Z" fill="white"/>
</g>
<g style="mix-blend-mode:overlay">
<path d="M682.85 137.6H679.12V141.31H682.85V137.6Z" fill="white"/>
</g>
<g style="mix-blend-mode:overlay">
<path d="M365.24 117.42H358.74V123.9H365.24V117.42Z" fill="white"/>
</g>
<g style="mix-blend-mode:overlay">
<path d="M591.19 106.3H584.69V112.78H591.19V106.3Z" fill="white"/>
</g>
<g style="mix-blend-mode:overlay">
<path d="M428.82 153.75H422.32V160.23H428.82V153.75Z" fill="white"/>
</g>
<g style="mix-blend-mode:overlay">
<path d="M749.64 76H747.65V77.98H749.64V76Z" fill="white"/>
</g>
<g style="mix-blend-mode:overlay">
<path d="M845.93 75.14H842.2V78.85H845.93V75.14Z" fill="white"/>
</g>
<g style="mix-blend-mode:overlay">
<path d="M507.54 72H504.07V75.46H507.54V72Z" fill="white"/>
</g>
<g style="mix-blend-mode:overlay">
<path d="M486.61 371.4H480.04V377.95H486.61V371.4Z" fill="white"/>
</g>
<g style="mix-blend-mode:overlay">
<path d="M553.93 472.38H547.36V478.93H553.93V472.38Z" fill="white"/>
</g>
<g style="mix-blend-mode:overlay">
<path d="M30.72 559.96H24.33V566.33H30.72V559.96Z" fill="white"/>
</g>
<g style="mix-blend-mode:overlay">
<path d="M271.82 666.19H269.36V668.64H271.82V666.19Z" fill="white"/>
</g>
<g style="mix-blend-mode:overlay">
<path d="M111.27 636.94H108.81V639.39H111.27V636.94Z" fill="white"/>
</g>
<g style="mix-blend-mode:overlay">
<path d="M94.12 544.77H91.66V547.22H94.12V544.77Z" fill="white"/>
</g>
<g style="mix-blend-mode:overlay">
<path d="M204.5 569.43H199.9V574.02H204.5V569.43Z" fill="white"/>
</g>
<g style="mix-blend-mode:overlay">
<path d="M81.26 702.31H76.66V706.9H81.26V702.31Z" fill="white"/>
</g>
<g style="mix-blend-mode:overlay">
<path d="M0.890038 612.29H-3.70996V616.88H0.890038V612.29Z" fill="white"/>
</g>
<g style="mix-blend-mode:overlay">
<path d="M36.25 676.59H31.65V681.18H36.25V676.59Z" fill="white"/>
</g>
<g style="mix-blend-mode:overlay">
<path d="M206.67 258.55H200.28V264.92H206.67V258.55Z" fill="white"/>
</g>
<g style="mix-blend-mode:overlay">
<path d="M369.74 381.61H367.28V384.06H369.74V381.61Z" fill="white"/>
</g>
<g style="mix-blend-mode:overlay">
<path d="M287.22 335.53H284.76V337.98H287.22V335.53Z" fill="white"/>
</g>
<g style="mix-blend-mode:overlay">
<path d="M270.07 243.36H267.61V245.81H270.07V243.36Z" fill="white"/>
</g>
<g style="mix-blend-mode:overlay">
<path d="M154.34 435.19H151.88V437.64H154.34V435.19Z" fill="white"/>
</g>
<g style="mix-blend-mode:overlay">
<path d="M133.98 302.3H131.52V304.75H133.98V302.3Z" fill="white"/>
</g>
<g style="mix-blend-mode:overlay">
<path d="M380.45 268.02H375.85V272.61H380.45V268.02Z" fill="white"/>
</g>
<g style="mix-blend-mode:overlay">
<path d="M257.21 400.9H252.61V405.49H257.21V400.9Z" fill="white"/>
</g>
<g style="mix-blend-mode:overlay">
<path d="M123.26 374.11H118.66V378.7H123.26V374.11Z" fill="white"/>
</g>
<g style="mix-blend-mode:overlay">
<path d="M118.97 242.3H114.37V246.89H118.97V242.3Z" fill="white"/>
</g>
<g style="mix-blend-mode:overlay">
<path d="M176.84 310.88H172.24V315.47H176.84V310.88Z" fill="white"/>
</g>
<g style="mix-blend-mode:overlay">
<path d="M212.2 375.18H207.6V379.77H212.2V375.18Z" fill="white"/>
</g>
<g style="mix-blend-mode:overlay">
<path d="M714.63 263.14H708.24V269.51H714.63V263.14Z" fill="white"/>
</g>
<g style="mix-blend-mode:overlay">
<path d="M877.69 386.2H875.23V388.65H877.69V386.2Z" fill="white"/>
</g>
<g style="mix-blend-mode:overlay">
<path d="M795.18 340.12H792.72V342.57H795.18V340.12Z" fill="white"/>
</g>
<g style="mix-blend-mode:overlay">
<path d="M778.03 247.95H775.57V250.4H778.03V247.95Z" fill="white"/>
</g>
<g style="mix-blend-mode:overlay">
<path d="M662.3 439.78H659.84V442.23H662.3V439.78Z" fill="white"/>
</g>
<g style="mix-blend-mode:overlay">
<path d="M641.94 306.89H639.48V309.34H641.94V306.89Z" fill="white"/>
</g>
<g style="mix-blend-mode:overlay">
<path d="M888.41 272.61H883.81V277.2H888.41V272.61Z" fill="white"/>
</g>
<g style="mix-blend-mode:overlay">
<path d="M765.17 405.49H760.57V410.08H765.17V405.49Z" fill="white"/>
</g>
<g style="mix-blend-mode:overlay">
<path d="M631.22 378.7H626.62V383.29H631.22V378.7Z" fill="white"/>
</g>
<g style="mix-blend-mode:overlay">
<path d="M626.93 246.89H622.33V251.48H626.93V246.89Z" fill="white"/>
</g>
<g style="mix-blend-mode:overlay">
<path d="M684.8 315.47H680.2V320.06H684.8V315.47Z" fill="white"/>
</g>
<g style="mix-blend-mode:overlay">
<path d="M720.16 379.77H715.56V384.36H720.16V379.77Z" fill="white"/>
</g>
<g style="mix-blend-mode:overlay">
<path d="M653.43 549.25H647.04V555.62H653.43V549.25Z" fill="white"/>
</g>
<g style="mix-blend-mode:overlay">
<path d="M816.49 672.31H814.03V674.76H816.49V672.31Z" fill="white"/>
</g>
<g style="mix-blend-mode:overlay">
<path d="M733.98 626.23H731.52V628.68H733.98V626.23Z" fill="white"/>
</g>
<g style="mix-blend-mode:overlay">
<path d="M716.83 534.06H714.37V536.51H716.83V534.06Z" fill="white"/>
</g>
<g style="mix-blend-mode:overlay">
<path d="M601.1 725.89H598.64V728.34H601.1V725.89Z" fill="white"/>
</g>
<g style="mix-blend-mode:overlay">
<path d="M580.74 593H578.28V595.45H580.74V593Z" fill="white"/>
</g>
<g style="mix-blend-mode:overlay">
<path d="M827.21 558.72H822.61V563.31H827.21V558.72Z" fill="white"/>
</g>
<g style="mix-blend-mode:overlay">
<path d="M703.97 691.6H699.37V696.19H703.97V691.6Z" fill="white"/>
</g>
<g style="mix-blend-mode:overlay">
<path d="M570.02 664.81H565.42V669.4H570.02V664.81Z" fill="white"/>
</g>
<g style="mix-blend-mode:overlay">
<path d="M565.73 533H561.13V537.59H565.73V533Z" fill="white"/>
</g>
<g style="mix-blend-mode:overlay">
<path d="M623.6 601.58H619V606.17H623.6V601.58Z" fill="white"/>
</g>
<g style="mix-blend-mode:overlay">
<path d="M658.96 665.88H654.36V670.47H658.96V665.88Z" fill="white"/>
</g>
<g style="mix-blend-mode:overlay">
<path d="M752.49 726.68H747.32V731.83H752.49V726.68Z" fill="white"/>
</g>
<g style="mix-blend-mode:overlay">
<path d="M619.91 628.51H617.92V630.49H619.91V628.51Z" fill="white"/>
</g>
<g style="mix-blend-mode:overlay">
<path d="M686.7 665.81H684.71V667.79H686.7V665.81Z" fill="white"/>
</g>
<g style="mix-blend-mode:overlay">
<path d="M709.26 747.35H707.27V749.33H709.26V747.35Z" fill="white"/>
</g>
<g style="mix-blend-mode:overlay">
<path d="M794.27 585.14H792.28V587.12H794.27V585.14Z" fill="white"/>
</g>
<g style="mix-blend-mode:overlay">
<path d="M812.49 697.04H810.5V699.02H812.49V697.04Z" fill="white"/>
</g>
<g style="mix-blend-mode:overlay">
<path d="M705.79 613.76H702.06V617.47H705.79V613.76Z" fill="white"/>
</g>
<g style="mix-blend-mode:overlay">
<path d="M816.83 629.38H813.1V633.09H816.83V629.38Z" fill="white"/>
</g>
<g style="mix-blend-mode:overlay">
<path d="M802.95 720.46H799.22V724.17H802.95V720.46Z" fill="white"/>
</g>
<g style="mix-blend-mode:overlay">
<path d="M777.79 684.03H774.06V687.74H777.79V684.03Z" fill="white"/>
</g>
<g style="mix-blend-mode:overlay">
<path d="M748.3 638.05H744.57V641.76H748.3V638.05Z" fill="white"/>
</g>
<g style="mix-blend-mode:overlay">
<path d="M614.71 746.49H610.98V750.2H614.71V746.49Z" fill="white"/>
</g>
<g style="mix-blend-mode:overlay">
<path d="M122.13 720.56H116.96V725.71H122.13V720.56Z" fill="white"/>
</g>
<g style="mix-blend-mode:overlay">
<path d="M56.34 659.69H54.35V661.67H56.34V659.69Z" fill="white"/>
</g>
<g style="mix-blend-mode:overlay">
<path d="M78.9 741.23H76.91V743.21H78.9V741.23Z" fill="white"/>
</g>
<g style="mix-blend-mode:overlay">
<path d="M163.91 579.02H161.92V581H163.91V579.02Z" fill="white"/>
</g>
<g style="mix-blend-mode:overlay">
<path d="M182.13 690.92H180.14V692.9H182.13V690.92Z" fill="white"/>
</g>
<g style="mix-blend-mode:overlay">
<path d="M75.43 607.64H71.7V611.35H75.43V607.64Z" fill="white"/>
</g>
<g style="mix-blend-mode:overlay">
<path d="M186.47 623.26H182.74V626.97H186.47V623.26Z" fill="white"/>
</g>
<g style="mix-blend-mode:overlay">
<path d="M172.59 714.34H168.86V718.05H172.59V714.34Z" fill="white"/>
</g>
<g style="mix-blend-mode:overlay">
<path d="M147.43 677.91H143.7V681.62H147.43V677.91Z" fill="white"/>
</g>
<g style="mix-blend-mode:overlay">
<path d="M117.94 631.93H114.21V635.64H117.94V631.93Z" fill="white"/>
</g>
<g style="mix-blend-mode:overlay">
<path d="M396.4 494.24H387.38V503.23H396.4V494.24Z" fill="white"/>
</g>
<g style="mix-blend-mode:overlay">
<path d="M626.76 668.07H623.29V671.53H626.76V668.07Z" fill="white"/>
</g>
<g style="mix-blend-mode:overlay">
<path d="M510.19 602.97H506.72V606.43H510.19V602.97Z" fill="white"/>
</g>
<g style="mix-blend-mode:overlay">
<path d="M485.97 472.78H482.5V476.24H485.97V472.78Z" fill="white"/>
</g>
<g style="mix-blend-mode:overlay">
<path d="M322.47 743.76H319V747.22H322.47V743.76Z" fill="white"/>
</g>
<g style="mix-blend-mode:overlay">
<path d="M293.71 556.04H290.24V559.5H293.71V556.04Z" fill="white"/>
</g>
<g style="mix-blend-mode:overlay">
<path d="M641.9 507.6H635.4V514.08H641.9V507.6Z" fill="white"/>
</g>
<g style="mix-blend-mode:overlay">
<path d="M467.81 695.32H461.31V701.8H467.81V695.32Z" fill="white"/>
</g>
<g style="mix-blend-mode:overlay">
<path d="M241.85 706.44H235.35V712.92H241.85V706.44Z" fill="white"/>
</g>
<g style="mix-blend-mode:overlay">
<path d="M272.52 471.27H266.02V477.75H272.52V471.27Z" fill="white"/>
</g>
<g style="mix-blend-mode:overlay">
<path d="M354.27 568.16H347.77V574.64H354.27V568.16Z" fill="white"/>
</g>
<g style="mix-blend-mode:overlay">
<path d="M404.22 658.99H397.72V665.47H404.22V658.99Z" fill="white"/>
</g>
<g style="mix-blend-mode:overlay">
<path d="M63.31 779.4H54.19V788.49H63.31V779.4Z" fill="white"/>
</g>
<g style="mix-blend-mode:overlay">
<path d="M296.12 955.09H292.61V958.59H296.12V955.09Z" fill="white"/>
</g>
<g style="mix-blend-mode:overlay">
<path d="M178.31 889.3H174.8V892.8H178.31V889.3Z" fill="white"/>
</g>
<g style="mix-blend-mode:overlay">
<path d="M153.83 757.72H150.32V761.22H153.83V757.72Z" fill="white"/>
</g>
<g style="mix-blend-mode:overlay">
<path d="M311.42 792.91H304.85V799.46H311.42V792.91Z" fill="white"/>
</g>
<g style="mix-blend-mode:overlay">
<path d="M135.47 982.63H128.9V989.18H135.47V982.63Z" fill="white"/>
</g>
<g style="mix-blend-mode:overlay">
<path d="M20.72 854.11H14.15V860.66H20.72V854.11Z" fill="white"/>
</g>
<g style="mix-blend-mode:overlay">
<path d="M71.21 945.91H64.64V952.46H71.21V945.91Z" fill="white"/>
</g>
<g style="mix-blend-mode:overlay">
<path d="M507.78 777.11H498.66V786.2H507.78V777.11Z" fill="white"/>
</g>
<g style="mix-blend-mode:overlay">
<path d="M755.89 1012.46H752.38V1015.96H755.89V1012.46Z" fill="white"/>
</g>
<g style="mix-blend-mode:overlay">
<path d="M638.08 946.67H634.57V950.17H638.08V946.67Z" fill="white"/>
</g>
<g style="mix-blend-mode:overlay">
<path d="M657.97 775.31H654.46V778.81H657.97V775.31Z" fill="white"/>
</g>
<g style="mix-blend-mode:overlay">
<path d="M448.36 1088.96H444.85V1092.46H448.36V1088.96Z" fill="white"/>
</g>
<g style="mix-blend-mode:overlay">
<path d="M365.74 931.37H362.23V934.87H365.74V931.37Z" fill="white"/>
</g>
<g style="mix-blend-mode:overlay">
<path d="M780.37 815.1H773.8V821.65H780.37V815.1Z" fill="white"/>
</g>
<g style="mix-blend-mode:overlay">
<path d="M628.9 1069.08H622.33V1075.63H628.9V1069.08Z" fill="white"/>
</g>
<g style="mix-blend-mode:overlay">
<path d="M329.02 1047.66H322.45V1054.21H329.02V1047.66Z" fill="white"/>
</g>
<g style="mix-blend-mode:overlay">
<path d="M355.03 744.72H348.46V751.27H355.03V744.72Z" fill="white"/>
</g>
<g style="mix-blend-mode:overlay">
<path d="M465.19 891.6H458.62V898.15H465.19V891.6Z" fill="white"/>
</g>
<g style="mix-blend-mode:overlay">
<path d="M532.51 992.58H525.94V999.13H532.51V992.58Z" fill="white"/>
</g>
<g style="mix-blend-mode:overlay">
<path d="M9.30003 1080.16H2.91003V1086.53H9.30003V1080.16Z" fill="white"/>
</g>
<g style="mix-blend-mode:overlay">
<path d="M250.4 1186.39H247.94V1188.84H250.4V1186.39Z" fill="white"/>
</g>
<g style="mix-blend-mode:overlay">
<path d="M89.85 1157.14H87.39V1159.59H89.85V1157.14Z" fill="white"/>
</g>
<g style="mix-blend-mode:overlay">
<path d="M72.7 1064.97H70.24V1067.42H72.7V1064.97Z" fill="white"/>
</g>
<g style="mix-blend-mode:overlay">
<path d="M183.08 1089.63H178.48V1094.22H183.08V1089.63Z" fill="white"/>
</g>
<g style="mix-blend-mode:overlay">
<path d="M14.83 1196.79H10.23V1201.38H14.83V1196.79Z" fill="white"/>
</g>
<g style="mix-blend-mode:overlay">
<path d="M185.25 778.75H178.86V785.12H185.25V778.75Z" fill="white"/>
</g>
<g style="mix-blend-mode:overlay">
<path d="M348.32 901.81H345.86V904.26H348.32V901.81Z" fill="white"/>
</g>
<g style="mix-blend-mode:overlay">
<path d="M265.8 855.73H263.34V858.18H265.8V855.73Z" fill="white"/>
</g>
<g style="mix-blend-mode:overlay">
<path d="M248.65 763.56H246.19V766.01H248.65V763.56Z" fill="white"/>
</g>
<g style="mix-blend-mode:overlay">
<path d="M132.92 955.39H130.46V957.84H132.92V955.39Z" fill="white"/>
</g>
<g style="mix-blend-mode:overlay">
<path d="M112.56 822.5H110.1V824.95H112.56V822.5Z" fill="white"/>
</g>
<g style="mix-blend-mode:overlay">
<path d="M359.03 788.22H354.43V792.81H359.03V788.22Z" fill="white"/>
</g>
<g style="mix-blend-mode:overlay">
<path d="M235.79 921.1H231.19V925.69H235.79V921.1Z" fill="white"/>
</g>
<g style="mix-blend-mode:overlay">
<path d="M101.84 894.31H97.24V898.9H101.84V894.31Z" fill="white"/>
</g>
<g style="mix-blend-mode:overlay">
<path d="M97.55 762.5H92.95V767.09H97.55V762.5Z" fill="white"/>
</g>
<g style="mix-blend-mode:overlay">
<path d="M155.42 831.08H150.82V835.67H155.42V831.08Z" fill="white"/>
</g>
<g style="mix-blend-mode:overlay">
<path d="M190.78 895.38H186.18V899.97H190.78V895.38Z" fill="white"/>
</g>
<g style="mix-blend-mode:overlay">
<path d="M693.21 783.34H686.82V789.71H693.21V783.34Z" fill="white"/>
</g>
<g style="mix-blend-mode:overlay">
<path d="M856.27 906.4H853.81V908.85H856.27V906.4Z" fill="white"/>
</g>
<g style="mix-blend-mode:overlay">
<path d="M773.76 860.32H771.3V862.77H773.76V860.32Z" fill="white"/>
</g>
<g style="mix-blend-mode:overlay">
<path d="M756.61 768.15H754.15V770.6H756.61V768.15Z" fill="white"/>
</g>
<g style="mix-blend-mode:overlay">
<path d="M640.88 959.98H638.42V962.43H640.88V959.98Z" fill="white"/>
</g>
<g style="mix-blend-mode:overlay">
<path d="M620.52 827.09H618.06V829.54H620.52V827.09Z" fill="white"/>
</g>
<g style="mix-blend-mode:overlay">
<path d="M866.99 792.81H862.39V797.4H866.99V792.81Z" fill="white"/>
</g>
<g style="mix-blend-mode:overlay">
<path d="M743.75 925.69H739.15V930.28H743.75V925.69Z" fill="white"/>
</g>
<g style="mix-blend-mode:overlay">
<path d="M609.8 898.9H605.2V903.49H609.8V898.9Z" fill="white"/>
</g>
<g style="mix-blend-mode:overlay">
<path d="M605.51 767.09H600.91V771.68H605.51V767.09Z" fill="white"/>
</g>
<g style="mix-blend-mode:overlay">
<path d="M663.38 835.67H658.78V840.26H663.38V835.67Z" fill="white"/>
</g>
<g style="mix-blend-mode:overlay">
<path d="M698.74 899.97H694.14V904.56H698.74V899.97Z" fill="white"/>
</g>
<g style="mix-blend-mode:overlay">
<path d="M632.01 1069.45H625.62V1075.82H632.01V1069.45Z" fill="white"/>
</g>
<g style="mix-blend-mode:overlay">
<path d="M795.07 1192.51H792.61V1194.96H795.07V1192.51Z" fill="white"/>
</g>
<g style="mix-blend-mode:overlay">
<path d="M712.56 1146.43H710.1V1148.88H712.56V1146.43Z" fill="white"/>
</g>
<g style="mix-blend-mode:overlay">
<path d="M695.41 1054.26H692.95V1056.71H695.41V1054.26Z" fill="white"/>
</g>
<g style="mix-blend-mode:overlay">
<path d="M559.32 1113.2H556.86V1115.65H559.32V1113.2Z" fill="white"/>
</g>
<g style="mix-blend-mode:overlay">
<path d="M805.79 1078.92H801.19V1083.51H805.79V1078.92Z" fill="white"/>
</g>
<g style="mix-blend-mode:overlay">
<path d="M682.55 1211.8H677.95V1216.39H682.55V1211.8Z" fill="white"/>
</g>
<g style="mix-blend-mode:overlay">
<path d="M548.6 1185.01H544V1189.6H548.6V1185.01Z" fill="white"/>
</g>
<g style="mix-blend-mode:overlay">
<path d="M544.31 1053.2H539.71V1057.79H544.31V1053.2Z" fill="white"/>
</g>
<g style="mix-blend-mode:overlay">
<path d="M602.18 1121.78H597.58V1126.37H602.18V1121.78Z" fill="white"/>
</g>
<g style="mix-blend-mode:overlay">
<path d="M637.54 1186.08H632.94V1190.67H637.54V1186.08Z" fill="white"/>
</g>
<g style="mix-blend-mode:overlay">
<path d="M598.49 1148.71H596.5V1150.69H598.49V1148.71Z" fill="white"/>
</g>
<g style="mix-blend-mode:overlay">
<path d="M665.28 1186.01H663.29V1187.99H665.28V1186.01Z" fill="white"/>
</g>
<g style="mix-blend-mode:overlay">
<path d="M772.85 1105.34H770.86V1107.32H772.85V1105.34Z" fill="white"/>
</g>
<g style="mix-blend-mode:overlay">
<path d="M791.07 1217.24H789.08V1219.22H791.07V1217.24Z" fill="white"/>
</g>
<g style="mix-blend-mode:overlay">
<path d="M684.37 1133.96H680.64V1137.67H684.37V1133.96Z" fill="white"/>
</g>
<g style="mix-blend-mode:overlay">
<path d="M795.41 1149.58H791.68V1153.29H795.41V1149.58Z" fill="white"/>
</g>
<g style="mix-blend-mode:overlay">
<path d="M756.37 1204.23H752.64V1207.94H756.37V1204.23Z" fill="white"/>
</g>
<g style="mix-blend-mode:overlay">
<path d="M726.88 1158.25H723.15V1161.96H726.88V1158.25Z" fill="white"/>
</g>
<g style="mix-blend-mode:overlay">
<path d="M34.92 1179.89H32.93V1181.87H34.92V1179.89Z" fill="white"/>
</g>
<g style="mix-blend-mode:overlay">
<path d="M142.49 1099.22H140.5V1101.2H142.49V1099.22Z" fill="white"/>
</g>
<g style="mix-blend-mode:overlay">
<path d="M160.71 1211.12H158.72V1213.1H160.71V1211.12Z" fill="white"/>
</g>
<g style="mix-blend-mode:overlay">
<path d="M54.01 1127.84H50.28V1131.55H54.01V1127.84Z" fill="white"/>
</g>
<g style="mix-blend-mode:overlay">
<path d="M165.05 1143.46H161.32V1147.17H165.05V1143.46Z" fill="white"/>
</g>
<g style="mix-blend-mode:overlay">
<path d="M126.01 1198.11H122.28V1201.82H126.01V1198.11Z" fill="white"/>
</g>
<g style="mix-blend-mode:overlay">
<path d="M96.52 1152.13H92.79V1155.84H96.52V1152.13Z" fill="white"/>
</g>
<g style="mix-blend-mode:overlay">
<path d="M374.98 1014.44H365.96V1023.43H374.98V1014.44Z" fill="white"/>
</g>
<g style="mix-blend-mode:overlay">
<path d="M605.34 1188.27H601.87V1191.73H605.34V1188.27Z" fill="white"/>
</g>
<g style="mix-blend-mode:overlay">
<path d="M488.77 1123.17H485.3V1126.63H488.77V1123.17Z" fill="white"/>
</g>
<g style="mix-blend-mode:overlay">
<path d="M464.55 992.98H461.08V996.44H464.55V992.98Z" fill="white"/>
</g>
<g style="mix-blend-mode:overlay">
<path d="M272.29 1076.24H268.82V1079.7H272.29V1076.24Z" fill="white"/>
</g>
<g style="mix-blend-mode:overlay">
<path d="M620.48 1027.8H613.98V1034.28H620.48V1027.8Z" fill="white"/>
</g>
<g style="mix-blend-mode:overlay">
<path d="M446.39 1215.52H439.89V1222H446.39V1215.52Z" fill="white"/>
</g>
<g style="mix-blend-mode:overlay">
<path d="M251.1 991.47H244.6V997.95H251.1V991.47Z" fill="white"/>
</g>
<g style="mix-blend-mode:overlay">
<path d="M332.85 1088.36H326.35V1094.84H332.85V1088.36Z" fill="white"/>
</g>
<g style="mix-blend-mode:overlay">
<path d="M382.8 1179.19H376.3V1185.67H382.8V1179.19Z" fill="white"/>
</g>
</g>
<g style="mix-blend-mode:overlay">
<g style="mix-blend-mode:overlay">
<path d="M1581.52 1051.11H1572.4V1060.2H1581.52V1051.11Z" fill="white"/>
</g>
<g style="mix-blend-mode:overlay">
<path d="M1343.09 881.01H1339.58V884.51H1343.09V881.01Z" fill="white"/>
</g>
<g style="mix-blend-mode:overlay">
<path d="M1460.9 946.8H1457.39V950.3H1460.9V946.8Z" fill="white"/>
</g>
<g style="mix-blend-mode:overlay">
<path d="M1485.38 1078.38H1481.87V1081.88H1485.38V1078.38Z" fill="white"/>
</g>
<g style="mix-blend-mode:overlay">
<path d="M1650.62 804.51H1647.11V808.01H1650.62V804.51Z" fill="white"/>
</g>
<g style="mix-blend-mode:overlay">
<path d="M1679.69 994.23H1676.18V997.73H1679.69V994.23Z" fill="white"/>
</g>
<g style="mix-blend-mode:overlay">
<path d="M1330.85 1040.14H1324.28V1046.69H1330.85V1040.14Z" fill="white"/>
</g>
<g style="mix-blend-mode:overlay">
<path d="M1506.8 850.42H1500.23V856.97H1506.8V850.42Z" fill="white"/>
</g>
<g style="mix-blend-mode:overlay">
<path d="M1698.05 888.67H1691.48V895.22H1698.05V888.67Z" fill="white"/>
</g>
<g style="mix-blend-mode:overlay">
<path d="M1704.17 1076.86H1697.6V1083.41H1704.17V1076.86Z" fill="white"/>
</g>
<g style="mix-blend-mode:overlay">
<path d="M1621.55 978.94H1614.98V985.49H1621.55V978.94Z" fill="white"/>
</g>
<g style="mix-blend-mode:overlay">
<path d="M1571.06 887.14H1564.49V893.69H1571.06V887.14Z" fill="white"/>
</g>
<g style="mix-blend-mode:overlay">
<path d="M1137.05 1053.41H1127.93V1062.5H1137.05V1053.41Z" fill="white"/>
</g>
<g style="mix-blend-mode:overlay">
<path d="M883.33 823.64H879.82V827.14H883.33V823.64Z" fill="white"/>
</g>
<g style="mix-blend-mode:overlay">
<path d="M1001.14 889.43H997.63V892.93H1001.14V889.43Z" fill="white"/>
</g>
<g style="mix-blend-mode:overlay">
<path d="M981.25 1060.79H977.74V1064.29H981.25V1060.79Z" fill="white"/>
</g>
<g style="mix-blend-mode:overlay">
<path d="M1190.86 747.14H1187.35V750.64H1190.86V747.14Z" fill="white"/>
</g>
<g style="mix-blend-mode:overlay">
<path d="M1273.48 904.73H1269.97V908.23H1273.48V904.73Z" fill="white"/>
</g>
<g style="mix-blend-mode:overlay">
<path d="M861.91 1017.96H855.34V1024.51H861.91V1017.96Z" fill="white"/>
</g>
<g style="mix-blend-mode:overlay">
<path d="M1013.38 763.98H1006.81V770.53H1013.38V763.98Z" fill="white"/>
</g>
<g style="mix-blend-mode:overlay">
<path d="M1313.26 785.4H1306.69V791.95H1313.26V785.4Z" fill="white"/>
</g>
<g style="mix-blend-mode:overlay">
<path d="M1287.25 1088.34H1280.68V1094.89H1287.25V1088.34Z" fill="white"/>
</g>
<g style="mix-blend-mode:overlay">
<path d="M1177.09 941.46H1170.52V948.01H1177.09V941.46Z" fill="white"/>
</g>
<g style="mix-blend-mode:overlay">
<path d="M1109.77 840.48H1103.2V847.03H1109.77V840.48Z" fill="white"/>
</g>
<g style="mix-blend-mode:overlay">
<path d="M1632.8 753.07H1626.41V759.44H1632.8V753.07Z" fill="white"/>
</g>
<g style="mix-blend-mode:overlay">
<path d="M1387.77 650.76H1385.31V653.21H1387.77V650.76Z" fill="white"/>
</g>
<g style="mix-blend-mode:overlay">
<path d="M1548.32 680.01H1545.86V682.46H1548.32V680.01Z" fill="white"/>
</g>
<g style="mix-blend-mode:overlay">
<path d="M1565.46 772.17H1563V774.62H1565.46V772.17Z" fill="white"/>
</g>
<g style="mix-blend-mode:overlay">
<path d="M1681.2 580.35H1678.74V582.8H1681.2V580.35Z" fill="white"/>
</g>
<g style="mix-blend-mode:overlay">
<path d="M1701.56 713.23H1699.1V715.68H1701.56V713.23Z" fill="white"/>
</g>
<g style="mix-blend-mode:overlay">
<path d="M1457.23 745.39H1452.63V749.98H1457.23V745.39Z" fill="white"/>
</g>
<g style="mix-blend-mode:overlay">
<path d="M1580.46 612.5H1575.86V617.09H1580.46V612.5Z" fill="white"/>
</g>
<g style="mix-blend-mode:overlay">
<path d="M1714.42 639.3H1709.82V643.89H1714.42V639.3Z" fill="white"/>
</g>
<g style="mix-blend-mode:overlay">
<path d="M1718.7 771.11H1714.1V775.7H1718.7V771.11Z" fill="white"/>
</g>
<g style="mix-blend-mode:overlay">
<path d="M1660.84 702.52H1656.24V707.11H1660.84V702.52Z" fill="white"/>
</g>
<g style="mix-blend-mode:overlay">
<path d="M1625.47 638.22H1620.87V642.81H1625.47V638.22Z" fill="white"/>
</g>
<g style="mix-blend-mode:overlay">
<path d="M1456.85 1054.48H1450.46V1060.85H1456.85V1054.48Z" fill="white"/>
</g>
<g style="mix-blend-mode:overlay">
<path d="M1289.85 935.34H1287.39V937.79H1289.85V935.34Z" fill="white"/>
</g>
<g style="mix-blend-mode:overlay">
<path d="M1372.37 981.42H1369.91V983.87H1372.37V981.42Z" fill="white"/>
</g>
<g style="mix-blend-mode:overlay">
<path d="M1389.51 1073.58H1387.05V1076.03H1389.51V1073.58Z" fill="white"/>
</g>
<g style="mix-blend-mode:overlay">
<path d="M1505.25 881.76H1502.79V884.21H1505.25V881.76Z" fill="white"/>
</g>
<g style="mix-blend-mode:overlay">
<path d="M1525.61 1014.64H1523.15V1017.09H1525.61V1014.64Z" fill="white"/>
</g>
<g style="mix-blend-mode:overlay">
<path d="M1281.28 1046.8H1276.68V1051.39H1281.28V1046.8Z" fill="white"/>
</g>
<g style="mix-blend-mode:overlay">
<path d="M1404.51 913.91H1399.91V918.5H1404.51V913.91Z" fill="white"/>
</g>
<g style="mix-blend-mode:overlay">
<path d="M1538.47 940.71H1533.87V945.3H1538.47V940.71Z" fill="white"/>
</g>
<g style="mix-blend-mode:overlay">
<path d="M1542.75 1072.52H1538.15V1077.11H1542.75V1072.52Z" fill="white"/>
</g>
<g style="mix-blend-mode:overlay">
<path d="M1484.89 1003.93H1480.29V1008.52H1484.89V1003.93Z" fill="white"/>
</g>
<g style="mix-blend-mode:overlay">
<path d="M1449.52 939.63H1444.92V944.22H1449.52V939.63Z" fill="white"/>
</g>
<g style="mix-blend-mode:overlay">
<path d="M948.89 1049.89H942.5V1056.26H948.89V1049.89Z" fill="white"/>
</g>
<g style="mix-blend-mode:overlay">
<path d="M781.89 930.75H779.43V933.2H781.89V930.75Z" fill="white"/>
</g>
<g style="mix-blend-mode:overlay">
<path d="M864.41 976.83H861.95V979.28H864.41V976.83Z" fill="white"/>
</g>
<g style="mix-blend-mode:overlay">
<path d="M881.55 1068.99H879.09V1071.44H881.55V1068.99Z" fill="white"/>
</g>
<g style="mix-blend-mode:overlay">
<path d="M997.29 877.17H994.83V879.62H997.29V877.17Z" fill="white"/>
</g>
<g style="mix-blend-mode:overlay">
<path d="M1017.65 1010.05H1015.19V1012.5H1017.65V1010.05Z" fill="white"/>
</g>
<g style="mix-blend-mode:overlay">
<path d="M773.32 1042.21H768.72V1046.8H773.32V1042.21Z" fill="white"/>
</g>
<g style="mix-blend-mode:overlay">
<path d="M896.55 909.32H891.95V913.91H896.55V909.32Z" fill="white"/>
</g>
<g style="mix-blend-mode:overlay">
<path d="M1030.51 936.12H1025.91V940.71H1030.51V936.12Z" fill="white"/>
</g>
<g style="mix-blend-mode:overlay">
<path d="M1034.79 1067.93H1030.19V1072.52H1034.79V1067.93Z" fill="white"/>
</g>
<g style="mix-blend-mode:overlay">
<path d="M976.93 999.34H972.33V1003.93H976.93V999.34Z" fill="white"/>
</g>
<g style="mix-blend-mode:overlay">
<path d="M941.56 935.04H936.96V939.63H941.56V935.04Z" fill="white"/>
</g>
<g style="mix-blend-mode:overlay">
<path d="M1010.09 763.78H1003.7V770.15H1010.09V763.78Z" fill="white"/>
</g>
<g style="mix-blend-mode:overlay">
<path d="M843.09 644.64H840.63V647.09H843.09V644.64Z" fill="white"/>
</g>
<g style="mix-blend-mode:overlay">
<path d="M925.61 690.72H923.15V693.17H925.61V690.72Z" fill="white"/>
</g>
<g style="mix-blend-mode:overlay">
<path d="M942.75 782.88H940.29V785.33H942.75V782.88Z" fill="white"/>
</g>
<g style="mix-blend-mode:overlay">
<path d="M1058.49 591.06H1056.03V593.51H1058.49V591.06Z" fill="white"/>
</g>
<g style="mix-blend-mode:overlay">
<path d="M1078.85 723.94H1076.39V726.39H1078.85V723.94Z" fill="white"/>
</g>
<g style="mix-blend-mode:overlay">
<path d="M834.52 756.1H829.92V760.69H834.52V756.1Z" fill="white"/>
</g>
<g style="mix-blend-mode:overlay">
<path d="M957.75 623.21H953.15V627.8H957.75V623.21Z" fill="white"/>
</g>
<g style="mix-blend-mode:overlay">
<path d="M1091.71 650.01H1087.11V654.6H1091.71V650.01Z" fill="white"/>
</g>
<g style="mix-blend-mode:overlay">
<path d="M1095.99 781.82H1091.39V786.41H1095.99V781.82Z" fill="white"/>
</g>
<g style="mix-blend-mode:overlay">
<path d="M1038.13 713.23H1033.53V717.82H1038.13V713.23Z" fill="white"/>
</g>
<g style="mix-blend-mode:overlay">
<path d="M1002.76 648.93H998.16V653.52H1002.76V648.93Z" fill="white"/>
</g>
<g style="mix-blend-mode:overlay">
<path d="M909.81 587.56H904.64V592.71H909.81V587.56Z" fill="white"/>
</g>
<g style="mix-blend-mode:overlay">
<path d="M1039.21 688.91H1037.22V690.89H1039.21V688.91Z" fill="white"/>
</g>
<g style="mix-blend-mode:overlay">
<path d="M972.41 651.61H970.42V653.59H972.41V651.61Z" fill="white"/>
</g>
<g style="mix-blend-mode:overlay">
<path d="M949.86 570.06H947.87V572.04H949.86V570.06Z" fill="white"/>
</g>
<g style="mix-blend-mode:overlay">
<path d="M864.85 732.28H862.86V734.26H864.85V732.28Z" fill="white"/>
</g>
<g style="mix-blend-mode:overlay">
<path d="M846.63 620.38H844.64V622.36H846.63V620.38Z" fill="white"/>
</g>
<g style="mix-blend-mode:overlay">
<path d="M955.07 701.92H951.34V705.63H955.07V701.92Z" fill="white"/>
</g>
<g style="mix-blend-mode:overlay">
<path d="M844.03 686.31H840.3V690.02H844.03V686.31Z" fill="white"/>
</g>
<g style="mix-blend-mode:overlay">
<path d="M857.91 595.22H854.18V598.93H857.91V595.22Z" fill="white"/>
</g>
<g style="mix-blend-mode:overlay">
<path d="M883.07 631.66H879.34V635.37H883.07V631.66Z" fill="white"/>
</g>
<g style="mix-blend-mode:overlay">
<path d="M912.56 677.63H908.83V681.34H912.56V677.63Z" fill="white"/>
</g>
<g style="mix-blend-mode:overlay">
<path d="M1046.15 569.2H1042.42V572.91H1046.15V569.2Z" fill="white"/>
</g>
<g style="mix-blend-mode:overlay">
<path d="M1540.17 593.68H1535V598.83H1540.17V593.68Z" fill="white"/>
</g>
<g style="mix-blend-mode:overlay">
<path d="M1669.57 695.03H1667.58V697.01H1669.57V695.03Z" fill="white"/>
</g>
<g style="mix-blend-mode:overlay">
<path d="M1602.77 657.73H1600.78V659.71H1602.77V657.73Z" fill="white"/>
</g>
<g style="mix-blend-mode:overlay">
<path d="M1580.22 576.18H1578.23V578.16H1580.22V576.18Z" fill="white"/>
</g>
<g style="mix-blend-mode:overlay">
<path d="M1495.21 738.4H1493.22V740.38H1495.21V738.4Z" fill="white"/>
</g>
<g style="mix-blend-mode:overlay">
<path d="M1476.99 626.5H1475V628.48H1476.99V626.5Z" fill="white"/>
</g>
<g style="mix-blend-mode:overlay">
<path d="M1585.43 708.04H1581.7V711.75H1585.43V708.04Z" fill="white"/>
</g>
<g style="mix-blend-mode:overlay">
<path d="M1474.39 692.43H1470.66V696.14H1474.39V692.43Z" fill="white"/>
</g>
<g style="mix-blend-mode:overlay">
<path d="M1488.27 601.34H1484.54V605.05H1488.27V601.34Z" fill="white"/>
</g>
<g style="mix-blend-mode:overlay">
<path d="M1513.43 637.78H1509.7V641.49H1513.43V637.78Z" fill="white"/>
</g>
<g style="mix-blend-mode:overlay">
<path d="M1542.92 683.75H1539.19V687.46H1542.92V683.75Z" fill="white"/>
</g>
<g style="mix-blend-mode:overlay">
<path d="M1676.51 575.32H1672.78V579.03H1676.51V575.32Z" fill="white"/>
</g>
<g style="mix-blend-mode:overlay">
<path d="M1269.74 816.17H1260.72V825.16H1269.74V816.17Z" fill="white"/>
</g>
<g style="mix-blend-mode:overlay">
<path d="M1033.83 647.87H1030.36V651.33H1033.83V647.87Z" fill="white"/>
</g>
<g style="mix-blend-mode:overlay">
<path d="M1150.4 712.97H1146.93V716.43H1150.4V712.97Z" fill="white"/>
</g>
<g style="mix-blend-mode:overlay">
<path d="M1174.62 843.16H1171.15V846.62H1174.62V843.16Z" fill="white"/>
</g>
<g style="mix-blend-mode:overlay">
<path d="M1338.12 572.18H1334.65V575.64H1338.12V572.18Z" fill="white"/>
</g>
<g style="mix-blend-mode:overlay">
<path d="M1366.88 759.9H1363.41V763.36H1366.88V759.9Z" fill="white"/>
</g>
<g style="mix-blend-mode:overlay">
<path d="M1021.72 805.32H1015.22V811.8H1021.72V805.32Z" fill="white"/>
</g>
<g style="mix-blend-mode:overlay">
<path d="M1195.82 617.6H1189.32V624.08H1195.82V617.6Z" fill="white"/>
</g>
<g style="mix-blend-mode:overlay">
<path d="M1421.77 606.48H1415.27V612.96H1421.77V606.48Z" fill="white"/>
</g>
<g style="mix-blend-mode:overlay">
<path d="M1391.11 841.65H1384.61V848.13H1391.11V841.65Z" fill="white"/>
</g>
<g style="mix-blend-mode:overlay">
<path d="M1309.36 744.76H1302.86V751.24H1309.36V744.76Z" fill="white"/>
</g>
<g style="mix-blend-mode:overlay">
<path d="M1259.4 653.93H1252.9V660.41H1259.4V653.93Z" fill="white"/>
</g>
<g style="mix-blend-mode:overlay">
<path d="M1602.94 530.91H1593.82V540H1602.94V530.91Z" fill="white"/>
</g>
<g style="mix-blend-mode:overlay">
<path d="M1364.51 360.81H1361V364.31H1364.51V360.81Z" fill="white"/>
</g>
<g style="mix-blend-mode:overlay">
<path d="M1482.32 426.6H1478.81V430.1H1482.32V426.6Z" fill="white"/>
</g>
<g style="mix-blend-mode:overlay">
<path d="M1506.8 558.18H1503.29V561.68H1506.8V558.18Z" fill="white"/>
</g>
<g style="mix-blend-mode:overlay">
<path d="M1672.04 284.31H1668.53V287.81H1672.04V284.31Z" fill="white"/>
</g>
<g style="mix-blend-mode:overlay">
<path d="M1701.11 474.03H1697.6V477.53H1701.11V474.03Z" fill="white"/>
</g>
<g style="mix-blend-mode:overlay">
<path d="M1352.27 519.94H1345.7V526.49H1352.27V519.94Z" fill="white"/>
</g>
<g style="mix-blend-mode:overlay">
<path d="M1528.22 330.22H1521.65V336.77H1528.22V330.22Z" fill="white"/>
</g>
<g style="mix-blend-mode:overlay">
<path d="M1719.47 368.47H1712.9V375.02H1719.47V368.47Z" fill="white"/>
</g>
<g style="mix-blend-mode:overlay">
<path d="M1725.59 556.66H1719.02V563.21H1725.59V556.66Z" fill="white"/>
</g>
<g style="mix-blend-mode:overlay">
<path d="M1642.97 458.74H1636.4V465.29H1642.97V458.74Z" fill="white"/>
</g>
<g style="mix-blend-mode:overlay">
<path d="M1592.48 366.94H1585.91V373.49H1592.48V366.94Z" fill="white"/>
</g>
<g style="mix-blend-mode:overlay">
<path d="M1158.47 533.21H1149.35V542.3H1158.47V533.21Z" fill="white"/>
</g>
<g style="mix-blend-mode:overlay">
<path d="M904.75 303.44H901.24V306.94H904.75V303.44Z" fill="white"/>
</g>
<g style="mix-blend-mode:overlay">
<path d="M1022.56 369.23H1019.05V372.73H1022.56V369.23Z" fill="white"/>
</g>
<g style="mix-blend-mode:overlay">
<path d="M1002.67 540.59H999.16V544.09H1002.67V540.59Z" fill="white"/>
</g>
<g style="mix-blend-mode:overlay">
<path d="M1212.28 226.94H1208.77V230.44H1212.28V226.94Z" fill="white"/>
</g>
<g style="mix-blend-mode:overlay">
<path d="M1294.9 384.53H1291.39V388.03H1294.9V384.53Z" fill="white"/>
</g>
<g style="mix-blend-mode:overlay">
<path d="M883.33 497.76H876.76V504.31H883.33V497.76Z" fill="white"/>
</g>
<g style="mix-blend-mode:overlay">
<path d="M1034.8 243.78H1028.23V250.33H1034.8V243.78Z" fill="white"/>
</g>
<g style="mix-blend-mode:overlay">
<path d="M1334.68 265.2H1328.11V271.75H1334.68V265.2Z" fill="white"/>
</g>
<g style="mix-blend-mode:overlay">
<path d="M1308.67 568.14H1302.1V574.69H1308.67V568.14Z" fill="white"/>
</g>
<g style="mix-blend-mode:overlay">
<path d="M1198.51 421.26H1191.94V427.81H1198.51V421.26Z" fill="white"/>
</g>
<g style="mix-blend-mode:overlay">
<path d="M1131.19 320.28H1124.62V326.83H1131.19V320.28Z" fill="white"/>
</g>
<g style="mix-blend-mode:overlay">
<path d="M1654.22 232.87H1647.83V239.24H1654.22V232.87Z" fill="white"/>
</g>
<g style="mix-blend-mode:overlay">
<path d="M1409.19 130.56H1406.73V133.01H1409.19V130.56Z" fill="white"/>
</g>
<g style="mix-blend-mode:overlay">
<path d="M1569.74 159.81H1567.28V162.26H1569.74V159.81Z" fill="white"/>
</g>
<g style="mix-blend-mode:overlay">
<path d="M1409.19 1178.08H1406.73V1180.53H1409.19V1178.08Z" fill="white"/>
</g>
<g style="mix-blend-mode:overlay">
<path d="M1569.74 1207.33H1567.28V1209.78H1569.74V1207.33Z" fill="white"/>
</g>
<g style="mix-blend-mode:overlay">
<path d="M1586.88 251.97H1584.42V254.42H1586.88V251.97Z" fill="white"/>
</g>
<g style="mix-blend-mode:overlay">
<path d="M1702.62 60.15H1700.16V62.6H1702.62V60.15Z" fill="white"/>
</g>
<g style="mix-blend-mode:overlay">
<path d="M1601.88 92.3H1597.28V96.89H1601.88V92.3Z" fill="white"/>
</g>
<g style="mix-blend-mode:overlay">
<path d="M1735.84 119.1H1731.24V123.69H1735.84V119.1Z" fill="white"/>
</g>
<g style="mix-blend-mode:overlay">
<path d="M1722.98 193.03H1720.52V195.48H1722.98V193.03Z" fill="white"/>
</g>
<g style="mix-blend-mode:overlay">
<path d="M1478.65 225.19H1474.05V229.78H1478.65V225.19Z" fill="white"/>
</g>
<g style="mix-blend-mode:overlay">
<path d="M1646.89 118.02H1642.29V122.61H1646.89V118.02Z" fill="white"/>
</g>
<g style="mix-blend-mode:overlay">
<path d="M1601.88 1139.82H1597.28V1144.41H1601.88V1139.82Z" fill="white"/>
</g>
<g style="mix-blend-mode:overlay">
<path d="M1735.84 1166.62H1731.24V1171.21H1735.84V1166.62Z" fill="white"/>
</g>
<g style="mix-blend-mode:overlay">
<path d="M1740.12 250.91H1735.52V255.5H1740.12V250.91Z" fill="white"/>
</g>
<g style="mix-blend-mode:overlay">
<path d="M1682.26 182.32H1677.66V186.91H1682.26V182.32Z" fill="white"/>
</g>
<g style="mix-blend-mode:overlay">
<path d="M1646.89 1165.54H1642.29V1170.13H1646.89V1165.54Z" fill="white"/>
</g>
<g style="mix-blend-mode:overlay">
<path d="M1478.27 534.28H1471.88V540.65H1478.27V534.28Z" fill="white"/>
</g>
<g style="mix-blend-mode:overlay">
<path d="M1311.27 415.14H1308.81V417.59H1311.27V415.14Z" fill="white"/>
</g>
<g style="mix-blend-mode:overlay">
<path d="M1393.79 461.22H1391.33V463.67H1393.79V461.22Z" fill="white"/>
</g>
<g style="mix-blend-mode:overlay">
<path d="M1410.93 553.38H1408.47V555.83H1410.93V553.38Z" fill="white"/>
</g>
<g style="mix-blend-mode:overlay">
<path d="M1526.67 361.56H1524.21V364.01H1526.67V361.56Z" fill="white"/>
</g>
<g style="mix-blend-mode:overlay">
<path d="M1547.03 494.44H1544.57V496.89H1547.03V494.44Z" fill="white"/>
</g>
<g style="mix-blend-mode:overlay">
<path d="M1302.7 526.6H1298.1V531.19H1302.7V526.6Z" fill="white"/>
</g>
<g style="mix-blend-mode:overlay">
<path d="M1425.93 393.71H1421.33V398.3H1425.93V393.71Z" fill="white"/>
</g>
<g style="mix-blend-mode:overlay">
<path d="M1559.89 420.51H1555.29V425.1H1559.89V420.51Z" fill="white"/>
</g>
<g style="mix-blend-mode:overlay">
<path d="M1564.17 552.32H1559.57V556.91H1564.17V552.32Z" fill="white"/>
</g>
<g style="mix-blend-mode:overlay">
<path d="M1506.31 483.73H1501.71V488.32H1506.31V483.73Z" fill="white"/>
</g>
<g style="mix-blend-mode:overlay">
<path d="M1470.94 419.43H1466.34V424.02H1470.94V419.43Z" fill="white"/>
</g>
<g style="mix-blend-mode:overlay">
<path d="M970.31 529.69H963.92V536.06H970.31V529.69Z" fill="white"/>
</g>
<g style="mix-blend-mode:overlay">
<path d="M803.31 410.55H800.85V413H803.31V410.55Z" fill="white"/>
</g>
<g style="mix-blend-mode:overlay">
<path d="M885.83 456.63H883.37V459.08H885.83V456.63Z" fill="white"/>
</g>
<g style="mix-blend-mode:overlay">
<path d="M902.97 548.79H900.51V551.24H902.97V548.79Z" fill="white"/>
</g>
<g style="mix-blend-mode:overlay">
<path d="M1018.71 356.97H1016.25V359.42H1018.71V356.97Z" fill="white"/>
</g>
<g style="mix-blend-mode:overlay">
<path d="M1039.07 489.85H1036.61V492.3H1039.07V489.85Z" fill="white"/>
</g>
<g style="mix-blend-mode:overlay">
<path d="M794.74 522.01H790.14V526.6H794.74V522.01Z" fill="white"/>
</g>
<g style="mix-blend-mode:overlay">
<path d="M917.97 389.12H913.37V393.71H917.97V389.12Z" fill="white"/>
</g>
<g style="mix-blend-mode:overlay">
<path d="M864.51 124.44H862.05V126.89H864.51V124.44Z" fill="white"/>
</g>
<g style="mix-blend-mode:overlay">
<path d="M947.03 170.52H944.57V172.97H947.03V170.52Z" fill="white"/>
</g>
<g style="mix-blend-mode:overlay">
<path d="M1051.93 415.92H1047.33V420.51H1051.93V415.92Z" fill="white"/>
</g>
<g style="mix-blend-mode:overlay">
<path d="M1056.21 547.73H1051.61V552.32H1056.21V547.73Z" fill="white"/>
</g>
<g style="mix-blend-mode:overlay">
<path d="M998.35 479.14H993.75V483.73H998.35V479.14Z" fill="white"/>
</g>
<g style="mix-blend-mode:overlay">
<path d="M962.98 414.84H958.38V419.43H962.98V414.84Z" fill="white"/>
</g>
<g style="mix-blend-mode:overlay">
<path d="M1031.51 243.58H1025.12V249.95H1031.51V243.58Z" fill="white"/>
</g>
<g style="mix-blend-mode:overlay">
<path d="M1113.13 129.81H1108.53V134.4H1113.13V129.81Z" fill="white"/>
</g>
<g style="mix-blend-mode:overlay">
<path d="M864.51 1171.96H862.05V1174.41H864.51V1171.96Z" fill="white"/>
</g>
<g style="mix-blend-mode:overlay">
<path d="M947.03 1218.04H944.57V1220.49H947.03V1218.04Z" fill="white"/>
</g>
<g style="mix-blend-mode:overlay">
<path d="M964.17 262.68H961.71V265.13H964.17V262.68Z" fill="white"/>
</g>
<g style="mix-blend-mode:overlay">
<path d="M1079.91 70.86H1077.45V73.31H1079.91V70.86Z" fill="white"/>
</g>
<g style="mix-blend-mode:overlay">
<path d="M1060.63 168.71H1058.64V170.69H1060.63V168.71Z" fill="white"/>
</g>
<g style="mix-blend-mode:overlay">
<path d="M993.83 131.41H991.84V133.39H993.83V131.41Z" fill="white"/>
</g>
<g style="mix-blend-mode:overlay">
<path d="M1100.27 203.74H1097.81V206.19H1100.27V203.74Z" fill="white"/>
</g>
<g style="mix-blend-mode:overlay">
<path d="M855.94 235.9H851.34V240.49H855.94V235.9Z" fill="white"/>
</g>
<g style="mix-blend-mode:overlay">
<path d="M868.05 100.18H866.06V102.16H868.05V100.18Z" fill="white"/>
</g>
<g style="mix-blend-mode:overlay">
<path d="M979.17 103.01H974.57V107.6H979.17V103.01Z" fill="white"/>
</g>
<g style="mix-blend-mode:overlay">
<path d="M865.45 166.11H861.72V169.82H865.45V166.11Z" fill="white"/>
</g>
<g style="mix-blend-mode:overlay">
<path d="M879.33 75.02H875.6V78.73H879.33V75.02Z" fill="white"/>
</g>
<g style="mix-blend-mode:overlay">
<path d="M904.49 111.46H900.76V115.17H904.49V111.46Z" fill="white"/>
</g>
<g style="mix-blend-mode:overlay">
<path d="M933.98 157.43H930.25V161.14H933.98V157.43Z" fill="white"/>
</g>
<g style="mix-blend-mode:overlay">
<path d="M1113.13 1177.33H1108.53V1181.92H1113.13V1177.33Z" fill="white"/>
</g>
<g style="mix-blend-mode:overlay">
<path d="M1561.59 73.48H1556.42V78.63H1561.59V73.48Z" fill="white"/>
</g>
<g style="mix-blend-mode:overlay">
<path d="M1117.41 261.62H1112.81V266.21H1117.41V261.62Z" fill="white"/>
</g>
<g style="mix-blend-mode:overlay">
<path d="M1624.19 137.53H1622.2V139.51H1624.19V137.53Z" fill="white"/>
</g>
<g style="mix-blend-mode:overlay">
<path d="M1059.55 193.03H1054.95V197.62H1059.55V193.03Z" fill="white"/>
</g>
<g style="mix-blend-mode:overlay">
<path d="M1024.18 128.73H1019.58V133.32H1024.18V128.73Z" fill="white"/>
</g>
<g style="mix-blend-mode:overlay">
<path d="M1498.41 106.3H1496.42V108.28H1498.41V106.3Z" fill="white"/>
</g>
<g style="mix-blend-mode:overlay">
<path d="M931.23 67.36H926.06V72.51H931.23V67.36Z" fill="white"/>
</g>
<g style="mix-blend-mode:overlay">
<path d="M1060.63 1216.23H1058.64V1218.21H1060.63V1216.23Z" fill="white"/>
</g>
<g style="mix-blend-mode:overlay">
<path d="M1509.69 81.14H1505.96V84.85H1509.69V81.14Z" fill="white"/>
</g>
<g style="mix-blend-mode:overlay">
<path d="M1534.85 117.58H1531.12V121.29H1534.85V117.58Z" fill="white"/>
</g>
<g style="mix-blend-mode:overlay">
<path d="M1564.34 163.55H1560.61V167.26H1564.34V163.55Z" fill="white"/>
</g>
<g style="mix-blend-mode:overlay">
<path d="M993.83 1178.93H991.84V1180.91H993.83V1178.93Z" fill="white"/>
</g>
<g style="mix-blend-mode:overlay">
<path d="M971.28 49.86H969.29V51.84H971.28V49.86Z" fill="white"/>
</g>
<g style="mix-blend-mode:overlay">
<path d="M1055.25 127.67H1051.78V131.13H1055.25V127.67Z" fill="white"/>
</g>
<g style="mix-blend-mode:overlay">
<path d="M886.27 212.08H884.28V214.06H886.27V212.08Z" fill="white"/>
</g>
<g style="mix-blend-mode:overlay">
<path d="M868.05 1147.7H866.06V1149.68H868.05V1147.7Z" fill="white"/>
</g>
<g style="mix-blend-mode:overlay">
<path d="M976.49 181.72H972.76V185.43H976.49V181.72Z" fill="white"/>
</g>
<g style="mix-blend-mode:overlay">
<path d="M865.45 1213.63H861.72V1217.34H865.45V1213.63Z" fill="white"/>
</g>
<g style="mix-blend-mode:overlay">
<path d="M879.33 1122.54H875.6V1126.25H879.33V1122.54Z" fill="white"/>
</g>
<g style="mix-blend-mode:overlay">
<path d="M1217.24 97.4H1210.74V103.88H1217.24V97.4Z" fill="white"/>
</g>
<g style="mix-blend-mode:overlay">
<path d="M1443.19 86.28H1436.69V92.76H1443.19V86.28Z" fill="white"/>
</g>
<g style="mix-blend-mode:overlay">
<path d="M904.49 1158.98H900.76V1162.69H904.49V1158.98Z" fill="white"/>
</g>
<g style="mix-blend-mode:overlay">
<path d="M933.98 1204.95H930.25V1208.66H933.98V1204.95Z" fill="white"/>
</g>
<g style="mix-blend-mode:overlay">
<path d="M1280.82 133.73H1274.32V140.21H1280.82V133.73Z" fill="white"/>
</g>
<g style="mix-blend-mode:overlay">
<path d="M1067.57 49H1063.84V52.71H1067.57V49Z" fill="white"/>
</g>
<g style="mix-blend-mode:overlay">
<path d="M1561.59 1121H1556.42V1126.15H1561.59V1121Z" fill="white"/>
</g>
<g style="mix-blend-mode:overlay">
<path d="M1690.99 174.83H1689V176.81H1690.99V174.83Z" fill="white"/>
</g>
<g style="mix-blend-mode:overlay">
<path d="M1624.19 1185.05H1622.2V1187.03H1624.19V1185.05Z" fill="white"/>
</g>
<g style="mix-blend-mode:overlay">
<path d="M1601.64 55.98H1599.65V57.96H1601.64V55.98Z" fill="white"/>
</g>
<g style="mix-blend-mode:overlay">
<path d="M1516.63 218.2H1514.64V220.18H1516.63V218.2Z" fill="white"/>
</g>
<g style="mix-blend-mode:overlay">
<path d="M1498.41 1153.82H1496.42V1155.8H1498.41V1153.82Z" fill="white"/>
</g>
<g style="mix-blend-mode:overlay">
<path d="M1606.85 187.84H1603.12V191.55H1606.85V187.84Z" fill="white"/>
</g>
<g style="mix-blend-mode:overlay">
<path d="M1495.81 172.23H1492.08V175.94H1495.81V172.23Z" fill="white"/>
</g>
<g style="mix-blend-mode:overlay">
<path d="M1509.69 1128.66H1505.96V1132.37H1509.69V1128.66Z" fill="white"/>
</g>
<g style="mix-blend-mode:overlay">
<path d="M1534.85 1165.1H1531.12V1168.81H1534.85V1165.1Z" fill="white"/>
</g>
<g style="mix-blend-mode:overlay">
<path d="M1564.34 1211.07H1560.61V1214.78H1564.34V1211.07Z" fill="white"/>
</g>
<g style="mix-blend-mode:overlay">
<path d="M1697.93 55.12H1694.2V58.83H1697.93V55.12Z" fill="white"/>
</g>
<g style="mix-blend-mode:overlay">
<path d="M1291.16 295.97H1282.14V304.96H1291.16V295.97Z" fill="white"/>
</g>
<g style="mix-blend-mode:overlay">
<path d="M1055.25 1175.19H1051.78V1178.65H1055.25V1175.19Z" fill="white"/>
</g>
<g style="mix-blend-mode:overlay">
<path d="M1171.82 192.77H1168.35V196.23H1171.82V192.77Z" fill="white"/>
</g>
<g style="mix-blend-mode:overlay">
<path d="M1196.04 322.96H1192.57V326.42H1196.04V322.96Z" fill="white"/>
</g>
<g style="mix-blend-mode:overlay">
<path d="M1359.54 51.98H1356.07V55.44H1359.54V51.98Z" fill="white"/>
</g>
<g style="mix-blend-mode:overlay">
<path d="M1388.3 239.7H1384.83V243.16H1388.3V239.7Z" fill="white"/>
</g>
<g style="mix-blend-mode:overlay">
<path d="M1043.14 285.12H1036.64V291.6H1043.14V285.12Z" fill="white"/>
</g>
<g style="mix-blend-mode:overlay">
<path d="M1217.24 1144.92H1210.74V1151.4H1217.24V1144.92Z" fill="white"/>
</g>
<g style="mix-blend-mode:overlay">
<path d="M1443.19 1133.8H1436.69V1140.28H1443.19V1133.8Z" fill="white"/>
</g>
<g style="mix-blend-mode:overlay">
<path d="M1412.53 321.45H1406.03V327.93H1412.53V321.45Z" fill="white"/>
</g>
<g style="mix-blend-mode:overlay">
<path d="M1330.78 224.56H1324.28V231.04H1330.78V224.56Z" fill="white"/>
</g>
<g style="mix-blend-mode:overlay">
<path d="M1280.82 1181.25H1274.32V1187.73H1280.82V1181.25Z" fill="white"/>
</g>
</g>
</g>
</g>
<defs>
<clipPath id="clip0_101_15">
<rect width="1823.13" height="1221.4" fill="white"/>
</clipPath>
</defs>
</svg>
