<svg width="355" height="330" viewBox="0 0 355 330" fill="none" xmlns="http://www.w3.org/2000/svg">
<g clip-path="url(#clip0_101_466)">
<path d="M272.5 90.24H262.47V100.27H272.5V90.24Z" fill="#FBD833"/>
<path d="M262.48 90.24H252.45V100.27H262.48V90.24Z" fill="#FBD833"/>
<path d="M252.45 160.42H242.42V170.45H252.45V160.42Z" fill="#FBD833"/>
<path d="M252.45 120.32H242.42V130.35H252.45V120.32Z" fill="#FBD833"/>
<path d="M252.45 60.16H242.42V70.19H252.45V60.16Z" fill="#FBD833"/>
<path d="M252.45 20.05H242.42V30.08H252.45V20.05Z" fill="#FBD833"/>
<path d="M242.42 150.4H232.39V160.43H242.42V150.4Z" fill="#FBD833"/>
<path d="M242.42 30.08H232.39V40.11H242.42V30.08Z" fill="#FBD833"/>
<path d="M232.4 100.26H222.37V110.29H232.4V100.26Z" fill="#9C7400"/>
<path d="M232.4 90.24H222.37V100.27H232.4V90.24Z" fill="#9C7400"/>
<path d="M232.4 80.21H222.37V90.24H232.4V80.21Z" fill="#9C7400"/>
<path d="M222.37 120.32H212.34V130.35H222.37V120.32Z" fill="#9C7400"/>
<path d="M222.37 110.29H212.34V120.32H222.37V110.29Z" fill="#9C7400"/>
<path d="M222.37 100.26H212.34V110.29H222.37V100.26Z" fill="#F7CA00"/>
<path d="M222.37 90.24H212.34V100.27H222.37V90.24Z" fill="#F7CA00"/>
<path d="M222.37 80.21H212.34V90.24H222.37V80.21Z" fill="#F7CA00"/>
<path d="M222.37 70.1801H212.34V80.2101H222.37V70.1801Z" fill="#9C7400"/>
<path d="M222.37 60.16H212.34V70.19H222.37V60.16Z" fill="#9C7400"/>
<path d="M212.35 130.34H202.32V140.37H212.35V130.34Z" fill="#9C7400"/>
<path d="M212.35 120.32H202.32V130.35H212.35V120.32Z" fill="#F7CA00"/>
<path d="M212.35 110.29H202.32V120.32H212.35V110.29Z" fill="#FBD833"/>
<path d="M212.35 100.26H202.32V110.29H212.35V100.26Z" fill="#FBD833"/>
<path d="M212.35 90.24H202.32V100.27H212.35V90.24Z" fill="#FBD833"/>
<path d="M212.35 80.21H202.32V90.24H212.35V80.21Z" fill="#FBD833"/>
<path d="M212.35 70.1801H202.32V80.2101H212.35V70.1801Z" fill="#FBD833"/>
<path d="M212.35 60.16H202.32V70.19H212.35V60.16Z" fill="#F7CA00"/>
<path d="M212.35 50.13H202.32V60.16H212.35V50.13Z" fill="#9C7400"/>
<path d="M212.35 20.05H202.32V30.08H212.35V20.05Z" fill="#FBD833"/>
<path d="M202.32 170.45H192.29V180.48H202.32V170.45Z" fill="#515151"/>
<path d="M202.32 160.42H192.29V170.45H202.32V160.42Z" fill="#515151"/>
<path d="M202.32 150.4H192.29V160.43H202.32V150.4Z" fill="#515151"/>
<path d="M202.32 140.37H192.29V150.4H202.32V140.37Z" fill="#9C7400"/>
<path d="M202.32 130.34H192.29V140.37H202.32V130.34Z" fill="#F7CA00"/>
<path d="M202.32 120.32H192.29V130.35H202.32V120.32Z" fill="#FBD833"/>
<path d="M202.32 110.29H192.29V120.32H202.32V110.29Z" fill="#DDAE01"/>
<path d="M202.32 100.26H192.29V110.29H202.32V100.26Z" fill="#DDAE01"/>
<path d="M202.32 90.24H192.29V100.27H202.32V90.24Z" fill="#FBD833"/>
<path d="M202.32 80.21H192.29V90.24H202.32V80.21Z" fill="#FBD833"/>
<path d="M202.32 70.1801H192.29V80.2101H202.32V70.1801Z" fill="#FBD833"/>
<path d="M202.32 60.16H192.29V70.19H202.32V60.16Z" fill="#FBD833"/>
<path d="M202.32 50.13H192.29V60.16H202.32V50.13Z" fill="#9C7400"/>
<path d="M192.29 180.47H182.26V190.5H192.29V180.47Z" fill="#515151"/>
<path d="M192.29 170.45H182.26V180.48H192.29V170.45Z" fill="#9C9C9C"/>
<path d="M192.29 160.42H182.26V170.45H192.29V160.42Z" fill="#747474"/>
<path d="M192.29 150.4H182.26V160.43H192.29V150.4Z" fill="#9C9C9C"/>
<path d="M192.29 140.37H182.26V150.4H192.29V140.37Z" fill="#F7CA00"/>
<path d="M192.29 130.34H182.26V140.37H192.29V130.34Z" fill="#FBD833"/>
<path d="M192.29 120.32H182.26V130.35H192.29V120.32Z" fill="#DDAE01"/>
<path d="M192.29 110.29H182.26V120.32H192.29V110.29Z" fill="#FBD833"/>
<path d="M192.29 100.26H182.26V110.29H192.29V100.26Z" fill="#FBD833"/>
<path d="M192.29 90.24H182.26V100.27H192.29V90.24Z" fill="white"/>
<path d="M192.29 80.21H182.26V90.24H192.29V80.21Z" fill="#FBD833"/>
<path d="M192.29 70.1801H182.26V80.2101H192.29V70.1801Z" fill="#FBD833"/>
<path d="M192.29 60.16H182.26V70.19H192.29V60.16Z" fill="#FBD833"/>
<path d="M192.29 50.13H182.26V60.16H192.29V50.13Z" fill="#F7CA00"/>
<path d="M192.29 40.1H182.26V50.13H192.29V40.1Z" fill="#9C7400"/>
<path d="M182.26 180.47H172.23V190.5H182.26V180.47Z" fill="#515151"/>
<path d="M182.26 170.45H172.23V180.48H182.26V170.45Z" fill="#7D7D7D"/>
<path d="M182.26 160.42H172.23V170.45H182.26V160.42Z" fill="#9C9C9C"/>
<path d="M182.26 150.4H172.23V160.43H182.26V150.4Z" fill="#7D7D7D"/>
<path d="M182.26 140.37H172.23V150.4H182.26V140.37Z" fill="#DDAE01"/>
<path d="M182.26 130.34H172.23V140.37H182.26V130.34Z" fill="#DDAE01"/>
<path d="M182.26 120.32H172.23V130.35H182.26V120.32Z" fill="#FBD833"/>
<path d="M182.26 110.29H172.23V120.32H182.26V110.29Z" fill="#FBD833"/>
<path d="M182.26 100.26H172.23V110.29H182.26V100.26Z" fill="#FBD833"/>
<path d="M182.26 90.24H172.23V100.27H182.26V90.24Z" fill="white"/>
<path d="M182.26 80.21H172.23V90.24H182.26V80.21Z" fill="#FBD833"/>
<path d="M182.26 70.1801H172.23V80.2101H182.26V70.1801Z" fill="#FBD833"/>
<path d="M182.26 60.16H172.23V70.19H182.26V60.16Z" fill="#FBD833"/>
<path d="M182.26 50.13H172.23V60.16H182.26V50.13Z" fill="#F7CA00"/>
<path d="M182.26 40.1H172.23V50.13H182.26V40.1Z" fill="#9C7400"/>
<path d="M182.26 10.03H172.23V20.06H182.26V10.03Z" fill="#FBD833"/>
<path d="M182.26 0H172.23V10.03H182.26V0Z" fill="#FBD833"/>
<path d="M172.24 180.47H162.21V190.5H172.24V180.47Z" fill="#515151"/>
<path d="M172.24 170.45H162.21V180.48H172.24V170.45Z" fill="#7D7D7D"/>
<path d="M172.24 160.42H162.21V170.45H172.24V160.42Z" fill="#9C9C9C"/>
<path d="M172.24 150.4H162.21V160.43H172.24V150.4Z" fill="#7D7D7D"/>
<path d="M172.24 140.37H162.21V150.4H172.24V140.37Z" fill="#F7CA00"/>
<path d="M172.24 130.34H162.21V140.37H172.24V130.34Z" fill="#FBD833"/>
<path d="M172.24 120.32H162.21V130.35H172.24V120.32Z" fill="#DDAE01"/>
<path d="M172.24 110.29H162.21V120.32H172.24V110.29Z" fill="#FBD833"/>
<path d="M172.24 100.26H162.21V110.29H172.24V100.26Z" fill="#FBD833"/>
<path d="M172.24 90.24H162.21V100.27H172.24V90.24Z" fill="white"/>
<path d="M172.24 80.21H162.21V90.24H172.24V80.21Z" fill="#FBD833"/>
<path d="M172.24 70.1801H162.21V80.2101H172.24V70.1801Z" fill="#FBD833"/>
<path d="M172.24 60.16H162.21V70.19H172.24V60.16Z" fill="#FBD833"/>
<path d="M172.24 50.13H162.21V60.16H172.24V50.13Z" fill="#F7CA00"/>
<path d="M172.24 40.1H162.21V50.13H172.24V40.1Z" fill="#9C7400"/>
<path d="M162.21 170.45H152.18V180.48H162.21V170.45Z" fill="#515151"/>
<path d="M162.21 160.42H152.18V170.45H162.21V160.42Z" fill="#515151"/>
<path d="M162.21 150.4H152.18V160.43H162.21V150.4Z" fill="#515151"/>
<path d="M162.21 140.37H152.18V150.4H162.21V140.37Z" fill="#9C7400"/>
<path d="M162.21 130.34H152.18V140.37H162.21V130.34Z" fill="#F7CA00"/>
<path d="M162.21 120.32H152.18V130.35H162.21V120.32Z" fill="#FBD833"/>
<path d="M162.21 110.29H152.18V120.32H162.21V110.29Z" fill="#DDAE01"/>
<path d="M162.21 100.26H152.18V110.29H162.21V100.26Z" fill="#DDAE01"/>
<path d="M162.21 90.24H152.18V100.27H162.21V90.24Z" fill="#FBD833"/>
<path d="M162.21 80.21H152.18V90.24H162.21V80.21Z" fill="#FBD833"/>
<path d="M162.21 70.1801H152.18V80.2101H162.21V70.1801Z" fill="#FBD833"/>
<path d="M162.21 60.16H152.18V70.19H162.21V60.16Z" fill="#FBD833"/>
<path d="M162.21 50.13H152.18V60.16H162.21V50.13Z" fill="#9C7400"/>
<path d="M152.19 130.34H142.16V140.37H152.19V130.34Z" fill="#9C7400"/>
<path d="M152.19 120.32H142.16V130.35H152.19V120.32Z" fill="#F7CA00"/>
<path d="M152.19 110.29H142.16V120.32H152.19V110.29Z" fill="#FBD833"/>
<path d="M152.19 100.26H142.16V110.29H152.19V100.26Z" fill="#FBD833"/>
<path d="M152.19 90.24H142.16V100.27H152.19V90.24Z" fill="#FBD833"/>
<path d="M152.19 80.21H142.16V90.24H152.19V80.21Z" fill="#FBD833"/>
<path d="M152.19 70.1801H142.16V80.2101H152.19V70.1801Z" fill="#FBD833"/>
<path d="M152.19 60.16H142.16V70.19H152.19V60.16Z" fill="#F7CA00"/>
<path d="M152.19 50.13H142.16V60.16H152.19V50.13Z" fill="#9C7400"/>
<path d="M152.19 20.05H142.16V30.08H152.19V20.05Z" fill="#FBD833"/>
<path d="M142.16 120.32H132.13V130.35H142.16V120.32Z" fill="#9C7400"/>
<path d="M142.16 110.29H132.13V120.32H142.16V110.29Z" fill="#9C7400"/>
<path d="M142.16 100.26H132.13V110.29H142.16V100.26Z" fill="#F7CA00"/>
<path d="M142.16 90.24H132.13V100.27H142.16V90.24Z" fill="#F7CA00"/>
<path d="M142.16 80.21H132.13V90.24H142.16V80.21Z" fill="#F7CA00"/>
<path d="M142.16 70.1801H132.13V80.2101H142.16V70.1801Z" fill="#9C7400"/>
<path d="M142.16 60.16H132.13V70.19H142.16V60.16Z" fill="#9C7400"/>
<path d="M132.13 100.26H122.1V110.29H132.13V100.26Z" fill="#9C7400"/>
<path d="M132.13 90.24H122.1V100.27H132.13V90.24Z" fill="#9C7400"/>
<path d="M132.13 80.21H122.1V90.24H132.13V80.21Z" fill="#9C7400"/>
<path d="M122.11 150.4H112.08V160.43H122.11V150.4Z" fill="#FBD833"/>
<path d="M122.11 30.08H112.08V40.11H122.11V30.08Z" fill="#FBD833"/>
<path d="M112.08 160.42H102.05V170.45H112.08V160.42Z" fill="#FBD833"/>
<path d="M112.08 120.32H102.05V130.35H112.08V120.32Z" fill="#FBD833"/>
<path d="M112.08 60.16H102.05V70.19H112.08V60.16Z" fill="#FBD833"/>
<path d="M112.08 20.05H102.05V30.08H112.08V20.05Z" fill="#FBD833"/>
<path d="M102.06 90.24H92.03V100.27H102.06V90.24Z" fill="#FBD833"/>
<path d="M92.03 90.24H82V100.27H92.03V90.24Z" fill="#FBD833"/>
<path d="M354.45 244.11H346.01V252.55H354.45V244.11Z" fill="white"/>
<path d="M354.45 235.66H346.01V244.1H354.45V235.66Z" fill="white"/>
<path d="M354.45 218.78H346.01V227.22H354.45V218.78Z" fill="white"/>
<path d="M346.01 244.11H337.57V252.55H346.01V244.11Z" fill="white"/>
<path d="M346.01 218.78H337.57V227.22H346.01V218.78Z" fill="white"/>
<path d="M337.57 244.11H329.13V252.55H337.57V244.11Z" fill="white"/>
<path d="M337.57 235.66H329.13V244.1H337.57V235.66Z" fill="white"/>
<path d="M337.57 227.22H329.13V235.66H337.57V227.22Z" fill="white"/>
<path d="M337.57 218.78H329.13V227.22H337.57V218.78Z" fill="white"/>
<path d="M320.69 244.11H312.25V252.55H320.69V244.11Z" fill="white"/>
<path d="M320.69 235.66H312.25V244.1H320.69V235.66Z" fill="white"/>
<path d="M320.69 227.22H312.25V235.66H320.69V227.22Z" fill="white"/>
<path d="M320.69 218.78H312.25V227.22H320.69V218.78Z" fill="white"/>
<path d="M312.25 235.66H303.81V244.1H312.25V235.66Z" fill="white"/>
<path d="M303.81 227.22H295.37V235.66H303.81V227.22Z" fill="white"/>
<path d="M295.37 244.11H286.93V252.55H295.37V244.11Z" fill="white"/>
<path d="M295.37 235.66H286.93V244.1H295.37V235.66Z" fill="white"/>
<path d="M295.37 227.22H286.93V235.66H295.37V227.22Z" fill="white"/>
<path d="M295.37 218.78H286.93V227.22H295.37V218.78Z" fill="white"/>
<path d="M278.49 244.11H270.05V252.55H278.49V244.11Z" fill="white"/>
<path d="M278.49 235.66H270.05V244.1H278.49V235.66Z" fill="white"/>
<path d="M278.49 227.22H270.05V235.66H278.49V227.22Z" fill="white"/>
<path d="M278.49 218.78H270.05V227.22H278.49V218.78Z" fill="white"/>
<path d="M261.6 235.66H253.16V244.1H261.6V235.66Z" fill="white"/>
<path d="M261.6 227.22H253.16V235.66H261.6V227.22Z" fill="white"/>
<path d="M253.16 244.11H244.72V252.55H253.16V244.11Z" fill="white"/>
<path d="M253.16 218.78H244.72V227.22H253.16V218.78Z" fill="white"/>
<path d="M244.72 244.11H236.28V252.55H244.72V244.11Z" fill="white"/>
<path d="M244.72 235.66H236.28V244.1H244.72V235.66Z" fill="white"/>
<path d="M244.72 227.22H236.28V235.66H244.72V227.22Z" fill="white"/>
<path d="M244.72 218.78H236.28V227.22H244.72V218.78Z" fill="white"/>
<path d="M227.84 244.11H219.4V252.55H227.84V244.11Z" fill="white"/>
<path d="M227.84 235.66H219.4V244.1H227.84V235.66Z" fill="white"/>
<path d="M227.84 227.22H219.4V235.66H227.84V227.22Z" fill="white"/>
<path d="M227.84 218.78H219.4V227.22H227.84V218.78Z" fill="white"/>
<path d="M219.4 235.66H210.96V244.1H219.4V235.66Z" fill="white"/>
<path d="M219.4 218.78H210.96V227.22H219.4V218.78Z" fill="white"/>
<path d="M210.96 244.11H202.52V252.55H210.96V244.11Z" fill="white"/>
<path d="M210.96 235.66H202.52V244.1H210.96V235.66Z" fill="white"/>
<path d="M210.96 227.22H202.52V235.66H210.96V227.22Z" fill="white"/>
<path d="M210.96 218.78H202.52V227.22H210.96V218.78Z" fill="white"/>
<path d="M194.08 244.11H185.64V252.55H194.08V244.11Z" fill="white"/>
<path d="M194.08 235.66H185.64V244.1H194.08V235.66Z" fill="white"/>
<path d="M194.08 227.22H185.64V235.66H194.08V227.22Z" fill="white"/>
<path d="M194.08 218.78H185.64V227.22H194.08V218.78Z" fill="white"/>
<path d="M185.64 244.11H177.2V252.55H185.64V244.11Z" fill="white"/>
<path d="M185.64 218.78H177.2V227.22H185.64V218.78Z" fill="white"/>
<path d="M177.2 244.11H168.76V252.55H177.2V244.11Z" fill="white"/>
<path d="M177.2 235.66H168.76V244.1H177.2V235.66Z" fill="white"/>
<path d="M177.2 227.22H168.76V235.66H177.2V227.22Z" fill="white"/>
<path d="M177.2 218.78H168.76V227.22H177.2V218.78Z" fill="white"/>
<path d="M160.32 244.11H151.88V252.55H160.32V244.11Z" fill="white"/>
<path d="M151.88 244.11H143.44V252.55H151.88V244.11Z" fill="white"/>
<path d="M143.44 244.11H135V252.55H143.44V244.11Z" fill="white"/>
<path d="M143.44 235.66H135V244.1H143.44V235.66Z" fill="white"/>
<path d="M143.44 227.22H135V235.66H143.44V227.22Z" fill="white"/>
<path d="M143.44 218.78H135V227.22H143.44V218.78Z" fill="white"/>
<path d="M109.78 244.06H101.34V252.5H109.78V244.06Z" fill="white"/>
<path d="M109.78 235.62H101.34V244.06H109.78V235.62Z" fill="white"/>
<path d="M109.78 227.18H101.34V235.62H109.78V227.18Z" fill="white"/>
<path d="M109.78 218.73H101.34V227.17H109.78V218.73Z" fill="white"/>
<path d="M101.33 235.62H92.89V244.06H101.33V235.62Z" fill="white"/>
<path d="M101.33 218.73H92.89V227.17H101.33V218.73Z" fill="white"/>
<path d="M92.89 244.06H84.45V252.5H92.89V244.06Z" fill="white"/>
<path d="M92.89 235.62H84.45V244.06H92.89V235.62Z" fill="white"/>
<path d="M92.89 227.18H84.45V235.62H92.89V227.18Z" fill="white"/>
<path d="M92.89 218.73H84.45V227.17H92.89V218.73Z" fill="white"/>
<path d="M76.01 244.06H67.57V252.5H76.01V244.06Z" fill="white"/>
<path d="M76.01 218.73H67.57V227.17H76.01V218.73Z" fill="white"/>
<path d="M67.57 244.06H59.13V252.5H67.57V244.06Z" fill="white"/>
<path d="M67.57 235.62H59.13V244.06H67.57V235.62Z" fill="white"/>
<path d="M67.57 218.73H59.13V227.17H67.57V218.73Z" fill="white"/>
<path d="M59.13 244.06H50.69V252.5H59.13V244.06Z" fill="white"/>
<path d="M59.13 235.62H50.69V244.06H59.13V235.62Z" fill="white"/>
<path d="M59.13 227.18H50.69V235.62H59.13V227.18Z" fill="white"/>
<path d="M59.13 218.73H50.69V227.17H59.13V218.73Z" fill="white"/>
<path d="M42.25 235.62H33.81V244.06H42.25V235.62Z" fill="white"/>
<path d="M42.25 227.18H33.81V235.62H42.25V227.18Z" fill="white"/>
<path d="M33.81 244.06H25.37V252.5H33.81V244.06Z" fill="white"/>
<path d="M33.81 218.73H25.37V227.17H33.81V218.73Z" fill="white"/>
<path d="M25.37 244.06H16.93V252.5H25.37V244.06Z" fill="white"/>
<path d="M25.37 235.62H16.93V244.06H25.37V235.62Z" fill="white"/>
<path d="M25.37 227.18H16.93V235.62H25.37V227.18Z" fill="white"/>
<path d="M25.37 218.73H16.93V227.17H25.37V218.73Z" fill="white"/>
<path d="M8.48999 244.06H0.0499878V252.5H8.48999V244.06Z" fill="white"/>
<path d="M8.48999 235.62H0.0499878V244.06H8.48999V235.62Z" fill="white"/>
<path d="M8.48999 227.18H0.0499878V235.62H8.48999V227.18Z" fill="white"/>
<path d="M8.48999 218.73H0.0499878V227.17H8.48999V218.73Z" fill="white"/>
<path d="M354.5 312.64H346.06V321.08H354.5V312.64Z" fill="white"/>
<path d="M354.5 304.2H346.06V312.64H354.5V304.2Z" fill="white"/>
<path d="M354.5 295.76H346.06V304.2H354.5V295.76Z" fill="white"/>
<path d="M354.5 287.32H346.06V295.76H354.5V287.32Z" fill="white"/>
<path d="M354.5 278.88H346.06V287.32H354.5V278.88Z" fill="white"/>
<path d="M346.06 321.08H337.62V329.52H346.06V321.08Z" fill="white"/>
<path d="M346.06 270.44H337.62V278.88H346.06V270.44Z" fill="white"/>
<path d="M337.62 321.08H329.18V329.52H337.62V321.08Z" fill="white"/>
<path d="M337.62 270.44H329.18V278.88H337.62V270.44Z" fill="white"/>
<path d="M329.18 321.08H320.74V329.52H329.18V321.08Z" fill="white"/>
<path d="M329.18 270.44H320.74V278.88H329.18V270.44Z" fill="white"/>
<path d="M320.74 321.08H312.3V329.52H320.74V321.08Z" fill="white"/>
<path d="M320.74 270.44H312.3V278.88H320.74V270.44Z" fill="white"/>
<path d="M312.3 321.08H303.86V329.52H312.3V321.08Z" fill="white"/>
<path d="M312.3 270.44H303.86V278.88H312.3V270.44Z" fill="white"/>
<path d="M303.86 321.08H295.42V329.52H303.86V321.08Z" fill="white"/>
<path d="M303.86 270.44H295.42V278.88H303.86V270.44Z" fill="white"/>
<path d="M295.42 321.08H286.98V329.52H295.42V321.08Z" fill="white"/>
<path d="M295.42 270.44H286.98V278.88H295.42V270.44Z" fill="white"/>
<path d="M286.97 321.08H278.53V329.52H286.97V321.08Z" fill="white"/>
<path d="M286.97 270.44H278.53V278.88H286.97V270.44Z" fill="white"/>
<path d="M278.53 321.08H270.09V329.52H278.53V321.08Z" fill="white"/>
<path d="M278.53 270.44H270.09V278.88H278.53V270.44Z" fill="white"/>
<path d="M270.09 321.08H261.65V329.52H270.09V321.08Z" fill="white"/>
<path d="M270.09 270.44H261.65V278.88H270.09V270.44Z" fill="white"/>
<path d="M261.65 321.08H253.21V329.52H261.65V321.08Z" fill="white"/>
<path d="M261.65 270.44H253.21V278.88H261.65V270.44Z" fill="white"/>
<path d="M253.21 321.08H244.77V329.52H253.21V321.08Z" fill="white"/>
<path d="M253.21 270.44H244.77V278.88H253.21V270.44Z" fill="white"/>
<path d="M244.77 321.08H236.33V329.52H244.77V321.08Z" fill="white"/>
<path d="M244.77 270.44H236.33V278.88H244.77V270.44Z" fill="white"/>
<path d="M236.33 321.08H227.89V329.52H236.33V321.08Z" fill="white"/>
<path d="M236.33 270.44H227.89V278.88H236.33V270.44Z" fill="white"/>
<path d="M227.89 321.08H219.45V329.52H227.89V321.08Z" fill="white"/>
<path d="M227.89 304.2H219.45V312.64H227.89V304.2Z" fill="#F3CE35"/>
<path d="M227.89 295.76H219.45V304.2H227.89V295.76Z" fill="#FDDA32"/>
<path d="M227.89 287.32H219.45V295.76H227.89V287.32Z" fill="#FDDA32"/>
<path d="M227.89 270.44H219.45V278.88H227.89V270.44Z" fill="white"/>
<path d="M219.45 321.08H211.01V329.52H219.45V321.08Z" fill="white"/>
<path d="M219.45 304.2H211.01V312.64H219.45V304.2Z" fill="#F3CE35"/>
<path d="M219.45 295.76H211.01V304.2H219.45V295.76Z" fill="#FDDA32"/>
<path d="M219.45 287.32H211.01V295.76H219.45V287.32Z" fill="#FDDA32"/>
<path d="M219.45 270.44H211.01V278.88H219.45V270.44Z" fill="white"/>
<path d="M211.01 321.08H202.57V329.52H211.01V321.08Z" fill="white"/>
<path d="M211.01 304.2H202.57V312.64H211.01V304.2Z" fill="#F3CE35"/>
<path d="M211.01 295.76H202.57V304.2H211.01V295.76Z" fill="#FDDA32"/>
<path d="M211.01 287.32H202.57V295.76H211.01V287.32Z" fill="#FDDA32"/>
<path d="M211.01 270.44H202.57V278.88H211.01V270.44Z" fill="white"/>
<path d="M202.57 321.08H194.13V329.52H202.57V321.08Z" fill="white"/>
<path d="M202.57 304.2H194.13V312.64H202.57V304.2Z" fill="#F3CE35"/>
<path d="M202.57 295.76H194.13V304.2H202.57V295.76Z" fill="#FDDA32"/>
<path d="M202.57 287.32H194.13V295.76H202.57V287.32Z" fill="#FDDA32"/>
<path d="M202.57 270.44H194.13V278.88H202.57V270.44Z" fill="white"/>
<path d="M194.13 321.08H185.69V329.52H194.13V321.08Z" fill="white"/>
<path d="M194.13 304.2H185.69V312.64H194.13V304.2Z" fill="#F3CE35"/>
<path d="M194.13 295.76H185.69V304.2H194.13V295.76Z" fill="#FDDA32"/>
<path d="M194.13 287.32H185.69V295.76H194.13V287.32Z" fill="#FDDA32"/>
<path d="M194.13 270.44H185.69V278.88H194.13V270.44Z" fill="white"/>
<path d="M185.69 321.08H177.25V329.52H185.69V321.08Z" fill="white"/>
<path d="M185.69 304.2H177.25V312.64H185.69V304.2Z" fill="#F3CE35"/>
<path d="M185.69 295.76H177.25V304.2H185.69V295.76Z" fill="#FDDA32"/>
<path d="M185.69 287.32H177.25V295.76H185.69V287.32Z" fill="#FDDA32"/>
<path d="M185.69 270.44H177.25V278.88H185.69V270.44Z" fill="white"/>
<path d="M177.25 321.08H168.81V329.52H177.25V321.08Z" fill="white"/>
<path d="M177.25 304.2H168.81V312.64H177.25V304.2Z" fill="#F3CE35"/>
<path d="M177.25 295.76H168.81V304.2H177.25V295.76Z" fill="#FDDA32"/>
<path d="M177.25 287.32H168.81V295.76H177.25V287.32Z" fill="#FDDA32"/>
<path d="M177.25 270.44H168.81V278.88H177.25V270.44Z" fill="white"/>
<path d="M168.81 321.08H160.37V329.52H168.81V321.08Z" fill="white"/>
<path d="M168.81 304.2H160.37V312.64H168.81V304.2Z" fill="#F3CE35"/>
<path d="M168.81 295.76H160.37V304.2H168.81V295.76Z" fill="#FDDA32"/>
<path d="M168.81 287.32H160.37V295.76H168.81V287.32Z" fill="#FDDA32"/>
<path d="M168.81 270.44H160.37V278.88H168.81V270.44Z" fill="white"/>
<path d="M160.37 321.08H151.93V329.52H160.37V321.08Z" fill="white"/>
<path d="M160.37 304.2H151.93V312.64H160.37V304.2Z" fill="#F3CE35"/>
<path d="M160.37 295.76H151.93V304.2H160.37V295.76Z" fill="#FDDA32"/>
<path d="M160.37 287.32H151.93V295.76H160.37V287.32Z" fill="#FDDA32"/>
<path d="M160.37 270.44H151.93V278.88H160.37V270.44Z" fill="white"/>
<path d="M151.93 321.08H143.49V329.52H151.93V321.08Z" fill="white"/>
<path d="M151.93 304.2H143.49V312.64H151.93V304.2Z" fill="#F3CE35"/>
<path d="M151.93 295.76H143.49V304.2H151.93V295.76Z" fill="#FDDA32"/>
<path d="M151.93 287.32H143.49V295.76H151.93V287.32Z" fill="#FDDA32"/>
<path d="M151.93 270.44H143.49V278.88H151.93V270.44Z" fill="white"/>
<path d="M143.49 321.08H135.05V329.52H143.49V321.08Z" fill="white"/>
<path d="M143.49 304.2H135.05V312.64H143.49V304.2Z" fill="#F3CE35"/>
<path d="M143.49 295.76H135.05V304.2H143.49V295.76Z" fill="#FDDA32"/>
<path d="M143.49 287.32H135.05V295.76H143.49V287.32Z" fill="#FDDA32"/>
<path d="M143.49 270.44H135.05V278.88H143.49V270.44Z" fill="white"/>
<path d="M135.05 321.08H126.61V329.52H135.05V321.08Z" fill="white"/>
<path d="M135.05 304.2H126.61V312.64H135.05V304.2Z" fill="#F3CE35"/>
<path d="M135.05 295.76H126.61V304.2H135.05V295.76Z" fill="#FDDA32"/>
<path d="M135.05 287.32H126.61V295.76H135.05V287.32Z" fill="#FDDA32"/>
<path d="M135.05 270.44H126.61V278.88H135.05V270.44Z" fill="white"/>
<path d="M126.61 321.08H118.17V329.52H126.61V321.08Z" fill="white"/>
<path d="M126.61 304.2H118.17V312.64H126.61V304.2Z" fill="#F3CE35"/>
<path d="M126.61 295.76H118.17V304.2H126.61V295.76Z" fill="#FDDA32"/>
<path d="M126.61 287.32H118.17V295.76H126.61V287.32Z" fill="#FDDA32"/>
<path d="M126.61 270.44H118.17V278.88H126.61V270.44Z" fill="white"/>
<path d="M118.17 321.08H109.73V329.52H118.17V321.08Z" fill="white"/>
<path d="M118.17 304.2H109.73V312.64H118.17V304.2Z" fill="#F3CE35"/>
<path d="M118.17 295.76H109.73V304.2H118.17V295.76Z" fill="#FDDA32"/>
<path d="M118.17 287.32H109.73V295.76H118.17V287.32Z" fill="#FDDA32"/>
<path d="M118.17 270.44H109.73V278.88H118.17V270.44Z" fill="white"/>
<path d="M109.73 321.08H101.29V329.52H109.73V321.08Z" fill="white"/>
<path d="M109.73 304.2H101.29V312.64H109.73V304.2Z" fill="#F3CE35"/>
<path d="M109.73 295.76H101.29V304.2H109.73V295.76Z" fill="#FDDA32"/>
<path d="M109.73 287.32H101.29V295.76H109.73V287.32Z" fill="#FDDA32"/>
<path d="M109.73 270.44H101.29V278.88H109.73V270.44Z" fill="white"/>
<path d="M101.28 321.08H92.84V329.52H101.28V321.08Z" fill="white"/>
<path d="M101.28 304.2H92.84V312.64H101.28V304.2Z" fill="#F3CE35"/>
<path d="M101.28 295.76H92.84V304.2H101.28V295.76Z" fill="#FDDA32"/>
<path d="M101.28 287.32H92.84V295.76H101.28V287.32Z" fill="#FDDA32"/>
<path d="M101.28 270.44H92.84V278.88H101.28V270.44Z" fill="white"/>
<path d="M92.85 321.08H84.41V329.52H92.85V321.08Z" fill="white"/>
<path d="M92.85 304.2H84.41V312.64H92.85V304.2Z" fill="#F3CE35"/>
<path d="M92.85 295.76H84.41V304.2H92.85V295.76Z" fill="#FDDA32"/>
<path d="M92.85 287.32H84.41V295.76H92.85V287.32Z" fill="#FDDA32"/>
<path d="M92.85 270.44H84.41V278.88H92.85V270.44Z" fill="white"/>
<path d="M84.4 321.08H75.96V329.52H84.4V321.08Z" fill="white"/>
<path d="M84.4 304.2H75.96V312.64H84.4V304.2Z" fill="#F3CE35"/>
<path d="M84.4 295.76H75.96V304.2H84.4V295.76Z" fill="#FDDA32"/>
<path d="M84.4 287.32H75.96V295.76H84.4V287.32Z" fill="#FDDA32"/>
<path d="M84.4 270.44H75.96V278.88H84.4V270.44Z" fill="white"/>
<path d="M75.96 321.08H67.52V329.52H75.96V321.08Z" fill="white"/>
<path d="M75.96 304.2H67.52V312.64H75.96V304.2Z" fill="#F3CE35"/>
<path d="M75.96 295.76H67.52V304.2H75.96V295.76Z" fill="#FDDA32"/>
<path d="M75.96 287.32H67.52V295.76H75.96V287.32Z" fill="#FDDA32"/>
<path d="M75.96 270.44H67.52V278.88H75.96V270.44Z" fill="white"/>
<path d="M67.52 321.08H59.08V329.52H67.52V321.08Z" fill="white"/>
<path d="M67.52 304.2H59.08V312.64H67.52V304.2Z" fill="#F3CE35"/>
<path d="M67.52 295.76H59.08V304.2H67.52V295.76Z" fill="#FDDA32"/>
<path d="M67.52 287.32H59.08V295.76H67.52V287.32Z" fill="#FDDA32"/>
<path d="M67.52 270.44H59.08V278.88H67.52V270.44Z" fill="white"/>
<path d="M59.08 321.08H50.64V329.52H59.08V321.08Z" fill="white"/>
<path d="M59.08 304.2H50.64V312.64H59.08V304.2Z" fill="#F3CE35"/>
<path d="M59.08 295.76H50.64V304.2H59.08V295.76Z" fill="#FDDA32"/>
<path d="M59.08 287.32H50.64V295.76H59.08V287.32Z" fill="#FDDA32"/>
<path d="M59.08 270.44H50.64V278.88H59.08V270.44Z" fill="white"/>
<path d="M50.64 321.08H42.2V329.52H50.64V321.08Z" fill="white"/>
<path d="M50.64 304.2H42.2V312.64H50.64V304.2Z" fill="#F3CE35"/>
<path d="M50.64 295.76H42.2V304.2H50.64V295.76Z" fill="#FDDA32"/>
<path d="M50.64 287.32H42.2V295.76H50.64V287.32Z" fill="#FDDA32"/>
<path d="M50.64 270.44H42.2V278.88H50.64V270.44Z" fill="white"/>
<path d="M42.2 321.08H33.76V329.52H42.2V321.08Z" fill="white"/>
<path d="M42.2 304.2H33.76V312.64H42.2V304.2Z" fill="#F3CE35"/>
<path d="M42.2 295.76H33.76V304.2H42.2V295.76Z" fill="#FDDA32"/>
<path d="M42.2 287.32H33.76V295.76H42.2V287.32Z" fill="#FDDA32"/>
<path d="M42.2 270.44H33.76V278.88H42.2V270.44Z" fill="white"/>
<path d="M33.76 321.08H25.32V329.52H33.76V321.08Z" fill="white"/>
<path d="M33.76 304.2H25.32V312.64H33.76V304.2Z" fill="#F3CE35"/>
<path d="M33.76 295.76H25.32V304.2H33.76V295.76Z" fill="#FDDA32"/>
<path d="M33.76 287.32H25.32V295.76H33.76V287.32Z" fill="#FDDA32"/>
<path d="M33.76 270.44H25.32V278.88H33.76V270.44Z" fill="white"/>
<path d="M25.32 321.08H16.88V329.52H25.32V321.08Z" fill="white"/>
<path d="M25.32 304.2H16.88V312.64H25.32V304.2Z" fill="#F3CE35"/>
<path d="M25.32 295.76H16.88V304.2H25.32V295.76Z" fill="#FDDA32"/>
<path d="M25.32 287.32H16.88V295.76H25.32V287.32Z" fill="#FDDA32"/>
<path d="M25.32 270.44H16.88V278.88H25.32V270.44Z" fill="white"/>
<path d="M16.88 321.08H8.44V329.52H16.88V321.08Z" fill="white"/>
<path d="M16.88 270.44H8.44V278.88H16.88V270.44Z" fill="white"/>
<path d="M8.44 312.64H0V321.08H8.44V312.64Z" fill="white"/>
<path d="M8.44 304.2H0V312.64H8.44V304.2Z" fill="white"/>
<path d="M8.44 295.76H0V304.2H8.44V295.76Z" fill="white"/>
<path d="M8.44 287.32H0V295.76H8.44V287.32Z" fill="white"/>
<path d="M8.44 278.88H0V287.32H8.44V278.88Z" fill="white"/>
</g>
<defs>
<clipPath id="clip0_101_466">
<rect width="354.5" height="329.52" fill="white"/>
</clipPath>
</defs>
</svg>
