<svg width="116" height="31" viewBox="0 0 116 31" fill="none" xmlns="http://www.w3.org/2000/svg">
<g clip-path="url(#clip0_136_15)">
<path d="M0 13V11.15H3.76V1.86H0.0400009V0H11.18V1.86H7.47V11.15H11.18V13H0Z" fill="#242EC7"/>
<path d="M13 13V3.72H24.15V5.57H26V13H22.29V5.57H16.76V13H13Z" fill="#242EC7"/>
<path d="M33.43 13V11.15H31.58V9.29H29.76V3.72H33.47V9.29H37.19V3.72H40.9V9.29H39.05V11.15H37.19V13H33.43Z" fill="#242EC7"/>
<path d="M44.58 13V11.15H42.76V5.57H44.62V3.72H53.9V5.57H55.76V9.29H46.48V11.15H53.9V13H44.58ZM46.44 7.43H52.01V5.57H46.44V7.43Z" fill="#242EC7"/>
<path d="M57.58 13V3.72H68.7599V5.57H70.6199V13H66.9099V5.57H61.33V13H57.58Z" fill="#242EC7"/>
<path d="M78.0101 13V5.57H74.3V3.72H78.0101V0H81.7601V3.72H85.4701V5.57H81.7601V13H78.0101Z" fill="#242EC7"/>
<path d="M89.16 13V11.15H87.3V5.57H89.16V3.72H98.44V5.57H100.3V11.15H98.44V13H89.16ZM91.0101 11.15H96.5901V5.57H91.0101V11.15Z" fill="#242EC7"/>
<path d="M107.76 5.57H109.62V7.43H107.76V13H104.05V3.72H107.76V5.57ZM115.19 3.72V5.57H109.62V3.72H115.19Z" fill="#242EC7"/>
<path d="M32.51 30.83V28.98H30.65V27.12H28.76V21.55H30.62V19.69H32.48V17.83H39.9V19.69H41.76V21.55H38.05V19.69H34.36V21.55H32.51V27.12H34.36V28.98H38.08V27.12H41.76V28.98H39.9V30.83H32.51Z" fill="#242EC7"/>
<path d="M45.51 30.83V28.98H49.22V19.69H47.36V17.83H52.94V28.98H56.65V30.83H45.51Z" fill="#242EC7"/>
<path d="M60.37 30.83V28.98H58.51V21.55H62.22V28.98H67.76V21.55H71.47V30.83H60.37Z" fill="#242EC7"/>
<path d="M75.23 30.83V28.98H73.37V17.83H77.08V21.55H84.51V23.36H86.37V28.94H84.51V30.79L75.23 30.83ZM77.08 28.98H82.66V23.36H77.08V28.98Z" fill="#242EC7"/>
</g>
<defs>
<clipPath id="clip0_136_15">
<rect width="115.16" height="30.83" fill="white"/>
</clipPath>
</defs>
</svg>
