<?xml version="1.0" standalone="no"?>
<!DOCTYPE svg PUBLIC "-//W3C//DTD SVG 20010904//EN"
 "http://www.w3.org/TR/2001/REC-SVG-20010904/DTD/svg10.dtd">
<svg version="1.0" xmlns="http://www.w3.org/2000/svg"
 width="700.000000pt" height="700.000000pt" viewBox="0 0 700.000000 700.000000"
 preserveAspectRatio="xMidYMid meet">
<metadata>
Created by potrace 1.14, written by Peter Selinger 2001-2017
</metadata>
<g transform="translate(0.000000,700.000000) scale(0.100000,-0.100000)"
fill="#000000" stroke="none">
<path d="M834 4831 c-2 -2 -4 -89 -4 -192 l0 -187 380 1 c298 2 380 -1 381
-10 5 -59 3 -1877 -2 -1885 -4 -7 -137 -10 -383 -10 l-376 0 2 -192 3 -191
1142 0 1142 0 1 192 0 191 -363 0 c-199 0 -371 1 -382 1 -20 1 -20 8 -20 946
1 519 4 947 8 951 3 4 175 6 381 6 l374 -1 1 190 c1 147 -1 189 -11 190 -41 3
-2270 3 -2274 0z"/>
<path d="M4278 4832 c-14 -3 -16 -25 -16 -165 0 -89 0 -174 -1 -188 l-1 -27
-162 0 c-90 0 -175 0 -190 -1 l-28 -1 0 -190 0 -190 -190 0 -190 0 0 -570 0
-570 190 0 190 0 0 -190 c0 -174 1 -190 18 -191 9 0 95 -1 190 -1 168 -1 172
-1 173 -22 0 -12 1 -96 1 -188 0 -119 4 -168 12 -169 32 -3 1474 -4 1493 -1
21 4 22 8 21 156 0 83 1 167 1 187 l1 37 188 -1 187 -1 3 192 2 192 -382 -2
-383 -3 1 -187 1 -188 -41 -1 c-55 0 -642 -1 -686 0 l-35 1 -1 188 0 187 -190
3 -191 2 0 570 0 570 191 0 191 0 0 190 c0 163 2 190 15 191 20 0 609 0 685 0
l61 -1 -1 -177 c0 -98 1 -184 3 -190 3 -10 89 -13 383 -13 l379 0 0 190 0 190
-22 1 c-13 0 -98 1 -190 1 -147 1 -168 3 -169 17 0 9 0 94 0 189 0 128 -3 172
-12 173 -31 3 -1485 4 -1499 1z"/>
</g>
</svg>
